<svg xmlns="http://www.w3.org/2000/svg" xmlns:xlink="http://www.w3.org/1999/xlink" xmlns:lucid="lucid" width="1843" height="580"><g transform="translate(-1709 178)" lucid:page-tab-id="0_0"><path d="M1500-500h2000V500H1500z" fill="#fff"/><path d="M2255.5-139.6a8 8 0 0 1 8-8h836.74a8 8 0 0 1 8 8v25.15a8 8 0 0 1-8 8H2263.5a8 8 0 0 1-8-8z" stroke="#000" stroke-opacity="0" stroke-width="2" fill="#fff" fill-opacity="0"/><use xlink:href="#a" transform="matrix(1,0,0,1,2259.4868541633045,-143.60605579828098) translate(304.2772839506173 25.782777777777778)"/><use xlink:href="#b" transform="matrix(1,0,0,1,2259.4868541633045,-143.60605579828098) translate(428.0316049382716 25.782777777777778)"/><use xlink:href="#c" transform="matrix(1,0,0,1,2259.4868541633045,-143.60605579828098) translate(473.11925925925925 25.782777777777778)"/><use xlink:href="#d" transform="matrix(1,0,0,1,2259.4868541633045,-143.60605579828098) translate(489.0711111111111 25.782777777777778)"/><path d="M2531.97-107.8h309.36M2532-107.8h-1.03M2841.3-107.8h1.03" stroke="#a9afb8" stroke-width="2" fill="none"/><path d="M2255.5-98.45a8 8 0 0 1 8-8h837.7a8 8 0 0 1 8 8v2.84a8 8 0 0 1-8 8h-837.7a8 8 0 0 1-8-8z" stroke="#000" stroke-opacity="0" stroke-width="2" fill="#fff" fill-opacity="0"/><use xlink:href="#e" transform="matrix(1,0,0,1,2259.486854163305,-102.45083184138217) translate(223.336646090535 14.917037037037037)"/><use xlink:href="#f" transform="matrix(1,0,0,1,2259.486854163305,-102.45083184138217) translate(274.2393209876543 14.917037037037037)"/><use xlink:href="#g" transform="matrix(1,0,0,1,2259.486854163305,-102.45083184138217) translate(351.95300411522635 14.917037037037037)"/><use xlink:href="#h" transform="matrix(1,0,0,1,2259.486854163305,-102.45083184138217) translate(448.65958847736624 14.917037037037037)"/><use xlink:href="#i" transform="matrix(1,0,0,1,2259.486854163305,-102.45083184138217) translate(519.9573251028808 14.917037037037037)"/><use xlink:href="#j" transform="matrix(1,0,0,1,2259.486854163305,-102.45083184138217) translate(532.4068106995885 14.917037037037037)"/><use xlink:href="#k" transform="matrix(1,0,0,1,2259.486854163305,-102.45083184138217) translate(569.7977572016462 14.917037037037037)"/><use xlink:href="#l" transform="matrix(1,0,0,1,2259.486854163305,-102.45083184138217) translate(595.2915843621399 14.917037037037037)"/><path d="M1760 34.78h349v305h-349z" stroke="#333" stroke-width="2" fill="#fff"/><path d="M1760 72.38h349m-349 101.3h349" stroke="#333" stroke-width="2" fill="none"/><use xlink:href="#m" transform="matrix(1,0,0,1,1768,42.779100524591854) translate(130.05 14.6)"/><use xlink:href="#n" transform="matrix(1,0,0,1,1772,80.37910052459185) translate(0 25)"/><use xlink:href="#o" transform="matrix(1,0,0,1,1772,80.37910052459185) translate(10.95 25)"/><use xlink:href="#n" transform="matrix(1,0,0,1,1772,80.37910052459185) translate(0 46.6)"/><use xlink:href="#p" transform="matrix(1,0,0,1,1772,80.37910052459185) translate(10.95 46.6)"/><use xlink:href="#n" transform="matrix(1,0,0,1,1772,80.37910052459185) translate(0 68.2)"/><use xlink:href="#q" transform="matrix(1,0,0,1,1772,80.37910052459185) translate(10.95 68.2)"/><use xlink:href="#r" transform="matrix(1,0,0,1,1772,181.67910052459183) translate(0 25.1)"/><use xlink:href="#s" transform="matrix(1,0,0,1,1772,181.67910052459183) translate(15.5 25.1)"/><use xlink:href="#r" transform="matrix(1,0,0,1,1772,181.67910052459183) translate(0 46.7)"/><use xlink:href="#t" transform="matrix(1,0,0,1,1772,181.67910052459183) translate(15.5 46.7)"/><use xlink:href="#r" transform="matrix(1,0,0,1,1772,181.67910052459183) translate(0 68.30000000000001)"/><use xlink:href="#u" transform="matrix(1,0,0,1,1772,181.67910052459183) translate(15.5 68.30000000000001)"/><use xlink:href="#r" transform="matrix(1,0,0,1,1772,181.67910052459183) translate(0 89.90000000000002)"/><use xlink:href="#v" transform="matrix(1,0,0,1,1772,181.67910052459183) translate(15.5 89.90000000000002)"/><use xlink:href="#r" transform="matrix(1,0,0,1,1772,181.67910052459183) translate(0 111.50000000000001)"/><use xlink:href="#w" transform="matrix(1,0,0,1,1772,181.67910052459183) translate(15.5 111.50000000000001)"/><use xlink:href="#r" transform="matrix(1,0,0,1,1772,181.67910052459183) translate(0 133.1)"/><use xlink:href="#x" transform="matrix(1,0,0,1,1772,181.67910052459183) translate(15.5 133.1)"/><path d="M3180 34.78h320v305h-320z" stroke="#333" stroke-width="2" fill="#fff"/><path d="M3180 72.38h320m-320 101.3h320" stroke="#333" stroke-width="2" fill="none"/><use xlink:href="#y" transform="matrix(1,0,0,1,3188,42.779100524591854) translate(113.05 14.6)"/><use xlink:href="#n" transform="matrix(1,0,0,1,3192,80.37910052459185) translate(0 25)"/><use xlink:href="#z" transform="matrix(1,0,0,1,3192,80.37910052459185) translate(10.95 25)"/><use xlink:href="#n" transform="matrix(1,0,0,1,3192,80.37910052459185) translate(0 46.6)"/><use xlink:href="#A" transform="matrix(1,0,0,1,3192,80.37910052459185) translate(10.95 46.6)"/><use xlink:href="#n" transform="matrix(1,0,0,1,3192,80.37910052459185) translate(0 68.2)"/><use xlink:href="#B" transform="matrix(1,0,0,1,3192,80.37910052459185) translate(10.95 68.2)"/><use xlink:href="#r" transform="matrix(1,0,0,1,3192,181.67910052459183) translate(0 25.1)"/><use xlink:href="#C" transform="matrix(1,0,0,1,3192,181.67910052459183) translate(15.5 25.1)"/><use xlink:href="#r" transform="matrix(1,0,0,1,3192,181.67910052459183) translate(0 46.7)"/><use xlink:href="#D" transform="matrix(1,0,0,1,3192,181.67910052459183) translate(15.5 46.7)"/><use xlink:href="#r" transform="matrix(1,0,0,1,3192,181.67910052459183) translate(0 68.30000000000001)"/><use xlink:href="#E" transform="matrix(1,0,0,1,3192,181.67910052459183) translate(15.5 68.30000000000001)"/><use xlink:href="#r" transform="matrix(1,0,0,1,3192,181.67910052459183) translate(0 89.90000000000002)"/><use xlink:href="#F" transform="matrix(1,0,0,1,3192,181.67910052459183) translate(15.5 89.90000000000002)"/><use xlink:href="#r" transform="matrix(1,0,0,1,3192,181.67910052459183) translate(0 111.50000000000001)"/><use xlink:href="#G" transform="matrix(1,0,0,1,3192,181.67910052459183) translate(15.5 111.50000000000001)"/><use xlink:href="#r" transform="matrix(1,0,0,1,3192,181.67910052459183) translate(0 133.1)"/><use xlink:href="#H" transform="matrix(1,0,0,1,3192,181.67910052459183) translate(15.5 133.1)"/><path d="M2280 34.4h254.5v305H2280z" stroke="#333" stroke-width="2" fill="#fff"/><path d="M2280 72h254.5M2280 173.3h254.5" stroke="#333" stroke-width="2" fill="none"/><g><use xlink:href="#I" transform="matrix(1,0,0,1,2288,42.39394420171902) translate(89.57499999999999 14.6)"/></g><g><use xlink:href="#n" transform="matrix(1,0,0,1,2292,79.99394420171902) translate(0 25)"/><use xlink:href="#J" transform="matrix(1,0,0,1,2292,79.99394420171902) translate(10.95 25)"/><use xlink:href="#n" transform="matrix(1,0,0,1,2292,79.99394420171902) translate(0 46.6)"/><use xlink:href="#K" transform="matrix(1,0,0,1,2292,79.99394420171902) translate(10.95 46.6)"/><use xlink:href="#n" transform="matrix(1,0,0,1,2292,79.99394420171902) translate(0 68.2)"/><use xlink:href="#L" transform="matrix(1,0,0,1,2292,79.99394420171902) translate(10.95 68.2)"/></g><g><use xlink:href="#r" transform="matrix(1,0,0,1,2292,181.293944201719) translate(0 25.1)"/><use xlink:href="#M" transform="matrix(1,0,0,1,2292,181.293944201719) translate(15.5 25.1)"/><use xlink:href="#r" transform="matrix(1,0,0,1,2292,181.293944201719) translate(0 46.7)"/><use xlink:href="#N" transform="matrix(1,0,0,1,2292,181.293944201719) translate(15.5 46.7)"/><use xlink:href="#r" transform="matrix(1,0,0,1,2292,181.293944201719) translate(0 68.30000000000001)"/><use xlink:href="#O" transform="matrix(1,0,0,1,2292,181.293944201719) translate(15.5 68.30000000000001)"/><use xlink:href="#r" transform="matrix(1,0,0,1,2292,181.293944201719) translate(0 89.90000000000002)"/><use xlink:href="#P" transform="matrix(1,0,0,1,2292,181.293944201719) translate(15.5 89.90000000000002)"/><use xlink:href="#r" transform="matrix(1,0,0,1,2292,181.293944201719) translate(0 111.50000000000001)"/><use xlink:href="#Q" transform="matrix(1,0,0,1,2292,181.293944201719) translate(15.5 111.50000000000001)"/><use xlink:href="#r" transform="matrix(1,0,0,1,2292,181.293944201719) translate(0 133.1)"/><use xlink:href="#R" transform="matrix(1,0,0,1,2292,181.293944201719) translate(15.5 133.1)"/></g><path d="M2111 112.3h167" stroke="#5e5e5e" stroke-width="2" fill="none"/><path d="M2111.04 113.3H2110v-2h1.04zM2279 113.3h-1.03v-2h1.03z" stroke="#5e5e5e" stroke-width=".05" fill="#5e5e5e"/><path d="M2154.84 84.4a6 6 0 0 1 6-6h67.34a6 6 0 0 1 6 6v21.84a6 6 0 0 1-6 6h-67.34a6 6 0 0 1-6-6z" stroke="#000" stroke-opacity="0" stroke-width="3" fill="#fff" fill-opacity="0"/><g><use xlink:href="#S" transform="matrix(1,0,0,1,2159.8372661930857,83.38713092968868) translate(4.1358024691358 19.27777777777778)"/></g><path d="M2255.5 118.24a6 6 0 0 1 6-6h12.5a6 6 0 0 1 6 6V140a6 6 0 0 1-6 6h-12.5a6 6 0 0 1-6-6z" stroke="#000" stroke-opacity="0" stroke-width="3" fill="#fff" fill-opacity="0"/><g><use xlink:href="#T" transform="matrix(1,0,0,1,2260.4868541633045,117.24243385798349) translate(3.796296296296298 15.166666666666664)"/></g><path d="M2109 118.24a6 6 0 0 1 6-6h12.53a6 6 0 0 1 6 6V140a6 6 0 0 1-6 6H2115a6 6 0 0 1-6-6z" stroke="#000" stroke-opacity="0" stroke-width="3" fill="#fff" fill-opacity="0"/><g><use xlink:href="#U" transform="matrix(1,0,0,1,2114.0147560562527,117.24243385798349) translate(-2.4999999999999964 14.666666666666666)"/></g><path d="M2700 88.78h320v197h-320z" stroke="#333" stroke-width="2" fill="#fff"/><path d="M2700 126.38h320m-320 58.1h320" stroke="#333" stroke-width="2" fill="none"/><g><use xlink:href="#V" transform="matrix(1,0,0,1,2708,96.77910052459185) translate(121.025 14.6)"/></g><g><use xlink:href="#n" transform="matrix(1,0,0,1,2712,134.37910052459185) translate(0 25.1)"/><use xlink:href="#W" transform="matrix(1,0,0,1,2712,134.37910052459185) translate(10.95 25.1)"/></g><g><use xlink:href="#r" transform="matrix(1,0,0,1,2712,192.47910052459184) translate(0 25)"/><use xlink:href="#X" transform="matrix(1,0,0,1,2712,192.47910052459184) translate(15.5 25)"/><use xlink:href="#r" transform="matrix(1,0,0,1,2712,192.47910052459184) translate(0 46.6)"/><use xlink:href="#Y" transform="matrix(1,0,0,1,2712,192.47910052459184) translate(15.5 46.6)"/><use xlink:href="#r" transform="matrix(1,0,0,1,2712,192.47910052459184) translate(0 68.2)"/><use xlink:href="#Z" transform="matrix(1,0,0,1,2712,192.47910052459184) translate(15.5 68.2)"/></g><path d="M2536.5 115.18h131.75" stroke="#5e5e5e" stroke-width="2" fill="none"/><path d="M2536.53 116.18h-1.02v-2h1.03z" stroke="#5e5e5e" stroke-width=".05" fill="#5e5e5e"/><path d="M2697.6 115.18l-14.86 14.85-15.15-14.85 15.14-14.85z" stroke="#5e5e5e" stroke-width="2" fill="#fff"/><path d="M2566.05 84.4a6 6 0 0 1 6-6h90.4a6 6 0 0 1 6 6v21.84a6 6 0 0 1-6 6h-90.4a6 6 0 0 1-6-6z" stroke="#000" stroke-opacity="0" stroke-width="3" fill="#fff" fill-opacity="0"/><g><use xlink:href="#aa" transform="matrix(1,0,0,1,2571.0454776035745,83.38713092968868) translate(3.382716049382708 19.27777777777778)"/></g><path d="M2680 126a6 6 0 0 1 6-6h12.5a6 6 0 0 1 6 6v21.76a6 6 0 0 1-6 6H2686a6 6 0 0 1-6-6z" stroke="#000" stroke-opacity="0" stroke-width="3" fill="#fff" fill-opacity="0"/><g><use xlink:href="#T" transform="matrix(1,0,0,1,2685,125) translate(3.796296296296298 15.166666666666664)"/></g><path d="M2534.5 126a6 6 0 0 1 6-6h12.52a6 6 0 0 1 6 6v21.76a6 6 0 0 1-6 6h-12.5a6 6 0 0 1-6-6z" stroke="#000" stroke-opacity="0" stroke-width="3" fill="#fff" fill-opacity="0"/><g><use xlink:href="#U" transform="matrix(1,0,0,1,2539.5073780281264,125) translate(-2.4999999999999964 14.666666666666666)"/></g><path d="M3022 112.27h156" stroke="#5e5e5e" stroke-width="2" fill="none"/><path d="M3022.03 113.27H3021v-2h1.03zM3179 113.27h-1.03v-2h1.03z" stroke="#5e5e5e" stroke-width=".05" fill="#5e5e5e"/><path d="M3048.8 84.4a6 6 0 0 1 6-6h90.4a6 6 0 0 1 6 6v21.84a6 6 0 0 1-6 6h-90.4a6 6 0 0 1-6-6z" stroke="#000" stroke-opacity="0" stroke-width="3" fill="#fff" fill-opacity="0"/><g><use xlink:href="#ab" transform="matrix(1,0,0,1,3053.7917885895113,83.38713092968868) translate(3.382716049382708 19.27777777777778)"/></g><path d="M3155.5 118.24a6 6 0 0 1 6-6h12.5a6 6 0 0 1 6 6V140a6 6 0 0 1-6 6h-12.5a6 6 0 0 1-6-6z" stroke="#000" stroke-opacity="0" stroke-width="3" fill="#fff" fill-opacity="0"/><g><use xlink:href="#ac" transform="matrix(1,0,0,1,3160.4868541633045,117.24243385798349) translate(4.907407407407408 15.166666666666664)"/></g><path d="M3020 118.24a6 6 0 0 1 6-6h12.5a6 6 0 0 1 6 6V140a6 6 0 0 1-6 6H3026a6 6 0 0 1-6-6z" stroke="#000" stroke-opacity="0" stroke-width="3" fill="#fff" fill-opacity="0"/><g><use xlink:href="#ac" transform="matrix(1,0,0,1,3025,117.24243385798349) translate(4.907407407407408 15.166666666666664)"/></g><defs><path d="M24 0v-248h195v40H76v63h132v40H76v65h150V0H24" id="ad"/><path d="M144 0l-44-69L55 0H2l70-98-66-92h53l41 62 40-62h54l-67 91 71 99h-54" id="ae"/><path d="M185-48c-13 30-37 53-82 52C43 2 14-33 14-96s30-98 90-98c62 0 83 45 84 108H66c0 31 8 55 39 56 18 0 30-7 34-22zm-45-69c5-46-57-63-70-21-2 6-4 13-4 21h74" id="af"/><path d="M135-150c-39-12-60 13-60 57V0H25l-1-190h47c2 13-1 29 3 40 6-28 27-53 61-41v41" id="ag"/><path d="M190-63c-7 42-38 67-86 67-59 0-84-38-90-98-12-110 154-137 174-36l-49 2c-2-19-15-32-35-32-30 0-35 28-38 64-6 74 65 87 74 30" id="ah"/><path d="M25 0v-190h50V0H25zm-5-208v-5l45-51h45v8l-60 48H20" id="ai"/><path d="M25-224v-37h50v37H25zM25 0v-190h50V0H25" id="aj"/><path d="M110-194c64 0 96 36 96 99 0 64-35 99-97 99-61 0-95-36-95-99 0-62 34-99 96-99zm-1 164c35 0 45-28 45-65 0-40-10-65-43-65-34 0-45 26-45 65 0 36 10 65 43 65" id="ak"/><g id="a"><use transform="matrix(0.0728395061728395,0,0,0.0728395061728395,0,0)" xlink:href="#ad"/><use transform="matrix(0.0728395061728395,0,0,0.0728395061728395,17.48148148148148,0)" xlink:href="#ae"/><use transform="matrix(0.0728395061728395,0,0,0.0728395061728395,32.04938271604938,0)" xlink:href="#af"/><use transform="matrix(0.0728395061728395,0,0,0.0728395061728395,46.61728395061728,0)" xlink:href="#ag"/><use transform="matrix(0.0728395061728395,0,0,0.0728395061728395,56.8148148148148,0)" xlink:href="#ah"/><use transform="matrix(0.0728395061728395,0,0,0.0728395061728395,71.38271604938271,0)" xlink:href="#ai"/><use transform="matrix(0.0728395061728395,0,0,0.0728395061728395,78.66666666666667,0)" xlink:href="#ah"/><use transform="matrix(0.0728395061728395,0,0,0.0728395061728395,93.23456790123456,0)" xlink:href="#aj"/><use transform="matrix(0.0728395061728395,0,0,0.0728395061728395,100.5185185185185,0)" xlink:href="#ak"/></g><path d="M115-3C79 11 28 4 28-45v-112H4v-33h27l15-45h31v45h36v33H77v99c-1 23 16 31 38 25v30" id="al"/><path d="M23 0v-37h61v-169l-59 37v-38l62-41h46v211h57V0H23" id="am"/><path d="M101-251c68 0 84 54 84 127C185-50 166 4 99 4S15-52 14-124c-1-75 17-127 87-127zm-1 216c37-5 36-46 36-89s4-89-36-89c-39 0-36 45-36 89 0 43-3 85 36 89" id="an"/><g id="b"><use transform="matrix(0.0728395061728395,0,0,0.0728395061728395,0,0)" xlink:href="#al"/><use transform="matrix(0.0728395061728395,0,0,0.0728395061728395,8.667901234567902,0)" xlink:href="#am"/><use transform="matrix(0.0728395061728395,0,0,0.0728395061728395,23.235802469135802,0)" xlink:href="#an"/></g><path d="M14-72v-43h91v43H14" id="ao"/><use transform="matrix(0.0728395061728395,0,0,0.0728395061728395,0,0)" xlink:href="#ao" id="c"/><path d="M24-248c93 1 206-16 204 79-1 75-69 88-152 82V0H24v-248zm52 121c47 0 100 7 100-41 0-47-54-39-100-39v80" id="ap"/><path d="M140-251c80 0 125 45 125 126S219 4 139 4C58 4 15-44 15-125s44-126 125-126zm-1 214c52 0 73-35 73-88 0-50-21-86-72-86-52 0-73 35-73 86s22 88 72 88" id="aq"/><g id="d"><use transform="matrix(0.0728395061728395,0,0,0.0728395061728395,0,0)" xlink:href="#ap"/><use transform="matrix(0.0728395061728395,0,0,0.0728395061728395,17.48148148148148,0)" xlink:href="#aq"/><use transform="matrix(0.0728395061728395,0,0,0.0728395061728395,37.876543209876544,0)" xlink:href="#aq"/></g><path d="M160-131c35 5 61 23 61 61C221 17 115-2 30 0v-248c76 3 177-17 177 60 0 33-19 50-47 57zm-97-11c50-1 110 9 110-42 0-47-63-36-110-37v79zm0 115c55-2 124 14 124-45 0-56-70-42-124-44v89" id="ar"/><path d="M233-177c-1 41-23 64-60 70L243 0h-38l-65-103H63V0H30v-248c88 3 205-21 203 71zM63-129c60-2 137 13 137-47 0-61-80-42-137-45v92" id="as"/><path d="M33 0v-248h34V0H33" id="at"/><path d="M205 0l-28-72H64L36 0H1l101-248h38L239 0h-34zm-38-99l-47-123c-12 45-31 82-46 123h93" id="au"/><path d="M190 0L58-211 59 0H30v-248h39L202-35l-2-213h31V0h-41" id="av"/><g id="e"><use transform="matrix(0.04248971193415638,0,0,0.04248971193415638,0,0)" xlink:href="#ar"/><use transform="matrix(0.04248971193415638,0,0,0.04248971193415638,10.19753086419753,0)" xlink:href="#as"/><use transform="matrix(0.04248971193415638,0,0,0.04248971193415638,21.20236625514403,0)" xlink:href="#at"/><use transform="matrix(0.04248971193415638,0,0,0.04248971193415638,25.45133744855967,0)" xlink:href="#au"/><use transform="matrix(0.04248971193415638,0,0,0.04248971193415638,35.6488683127572,0)" xlink:href="#av"/></g><path d="M240 0l2-218c-23 76-54 145-80 218h-23L58-218 59 0H30v-248h44l77 211c21-75 51-140 76-211h43V0h-30" id="aw"/><path d="M127-220V0H93v-220H8v-28h204v28h-85" id="ax"/><path d="M197 0v-115H63V0H30v-248h33v105h134v-105h34V0h-34" id="ay"/><path d="M30 0v-248h187v28H63v79h144v27H63v87h162V0H30" id="az"/><path d="M232-93c-1 65-40 97-104 97C67 4 28-28 28-90v-158h33c8 89-33 224 67 224 102 0 64-133 71-224h33v155" id="aA"/><path d="M185-189c-5-48-123-54-124 2 14 75 158 14 163 119 3 78-121 87-175 55-17-10-28-26-33-46l33-7c5 56 141 63 141-1 0-78-155-14-162-118-5-82 145-84 179-34 5 7 8 16 11 25" id="aB"/><g id="f"><use transform="matrix(0.04248971193415638,0,0,0.04248971193415638,0,0)" xlink:href="#aw"/><use transform="matrix(0.04248971193415638,0,0,0.04248971193415638,12.704423868312757,0)" xlink:href="#au"/><use transform="matrix(0.04248971193415638,0,0,0.04248971193415638,21.754732510288065,0)" xlink:href="#ax"/><use transform="matrix(0.04248971193415638,0,0,0.04248971193415638,31.059979423868313,0)" xlink:href="#ay"/><use transform="matrix(0.04248971193415638,0,0,0.04248971193415638,42.06481481481482,0)" xlink:href="#az"/><use transform="matrix(0.04248971193415638,0,0,0.04248971193415638,52.262345679012356,0)" xlink:href="#aA"/><use transform="matrix(0.04248971193415638,0,0,0.04248971193415638,63.26718106995885,0)" xlink:href="#aB"/></g><path d="M140-251c81 0 123 46 123 126C263-46 219 4 140 4 59 4 17-45 17-125s42-126 123-126zm0 227c63 0 89-41 89-101s-29-99-89-99c-61 0-89 39-89 99S79-25 140-24" id="aC"/><path d="M30-248c118-7 216 8 213 122C240-48 200 0 122 0H30v-248zM63-27c89 8 146-16 146-99s-60-101-146-95v194" id="aD"/><path d="M143 4C61 4 22-44 18-125c-5-107 100-154 193-111 17 8 29 25 37 43l-32 9c-13-25-37-40-76-40-61 0-88 39-88 99 0 61 29 100 91 101 35 0 62-11 79-27v-45h-74v-28h105v86C228-13 192 4 143 4" id="aE"/><g id="g"><use transform="matrix(0.04248971193415638,0,0,0.04248971193415638,0,0)" xlink:href="#as"/><use transform="matrix(0.04248971193415638,0,0,0.04248971193415638,11.004835390946502,0)" xlink:href="#aC"/><use transform="matrix(0.04248971193415638,0,0,0.04248971193415638,22.901954732510287,0)" xlink:href="#aD"/><use transform="matrix(0.04248971193415638,0,0,0.04248971193415638,33.90679012345679,0)" xlink:href="#as"/><use transform="matrix(0.04248971193415638,0,0,0.04248971193415638,44.91162551440329,0)" xlink:href="#at"/><use transform="matrix(0.04248971193415638,0,0,0.04248971193415638,49.160596707818925,0)" xlink:href="#aE"/><use transform="matrix(0.04248971193415638,0,0,0.04248971193415638,61.05771604938271,0)" xlink:href="#aA"/><use transform="matrix(0.04248971193415638,0,0,0.04248971193415638,72.06255144032922,0)" xlink:href="#az"/><use transform="matrix(0.04248971193415638,0,0,0.04248971193415638,82.26008230452675,0)" xlink:href="#aB"/></g><g id="h"><use transform="matrix(0.04248971193415638,0,0,0.04248971193415638,0,0)" xlink:href="#as"/><use transform="matrix(0.04248971193415638,0,0,0.04248971193415638,11.004835390946502,0)" xlink:href="#at"/><use transform="matrix(0.04248971193415638,0,0,0.04248971193415638,15.25380658436214,0)" xlink:href="#ar"/><use transform="matrix(0.04248971193415638,0,0,0.04248971193415638,25.45133744855967,0)" xlink:href="#az"/><use transform="matrix(0.04248971193415638,0,0,0.04248971193415638,35.6488683127572,0)" xlink:href="#at"/><use transform="matrix(0.04248971193415638,0,0,0.04248971193415638,39.897839506172836,0)" xlink:href="#as"/><use transform="matrix(0.04248971193415638,0,0,0.04248971193415638,50.90267489711934,0)" xlink:href="#aC"/></g><path d="M32 76v-337h29V76H32" id="aF"/><use transform="matrix(0.04248971193415638,0,0,0.04248971193415638,0,0)" xlink:href="#aF" id="i"/><path d="M153-248C145-148 188 4 80 4 36 3 13-21 6-62l32-5c4 25 16 42 43 43 27 0 39-20 39-49v-147H72v-28h81" id="aG"/><path d="M84 4C-5 8 30-112 23-190h32v120c0 31 7 50 39 49 72-2 45-101 50-169h31l1 190h-30c-1-10 1-25-2-33-11 22-28 36-60 37" id="aH"/><path d="M117-194c89-4 53 116 60 194h-32v-121c0-31-8-49-39-48C34-167 62-67 57 0H25l-1-190h30c1 10-1 24 2 32 11-22 29-35 61-36" id="aI"/><path d="M100-194c63 0 86 42 84 106H49c0 40 14 67 53 68 26 1 43-12 49-29l28 8c-11 28-37 45-77 45C44 4 14-33 15-96c1-61 26-98 85-98zm52 81c6-60-76-77-97-28-3 7-6 17-6 28h103" id="aJ"/><g id="j"><use transform="matrix(0.04248971193415638,0,0,0.04248971193415638,0,0)" xlink:href="#aG"/><use transform="matrix(0.04248971193415638,0,0,0.04248971193415638,7.648148148148148,0)" xlink:href="#aH"/><use transform="matrix(0.04248971193415638,0,0,0.04248971193415638,16.14609053497942,0)" xlink:href="#aI"/><use transform="matrix(0.04248971193415638,0,0,0.04248971193415638,24.644032921810698,0)" xlink:href="#aJ"/></g><path d="M101-251c82-7 93 87 43 132L82-64C71-53 59-42 53-27h129V0H18c2-99 128-94 128-182 0-28-16-43-45-43s-46 15-49 41l-32-3c6-41 34-60 81-64" id="aK"/><path d="M54-142c48-35 137-8 131 61C196 18 31 33 14-55l32-4c7 23 22 37 52 37 35-1 51-22 54-58 4-55-73-65-99-34H22l8-134h141v27H59" id="aL"/><path d="M68-38c1 34 0 65-14 84H32c9-13 17-26 17-46H33v-38h35" id="aM"/><g id="k"><use transform="matrix(0.04248971193415638,0,0,0.04248971193415638,0,0)" xlink:href="#aK"/><use transform="matrix(0.04248971193415638,0,0,0.04248971193415638,8.497942386831275,0)" xlink:href="#aL"/><use transform="matrix(0.04248971193415638,0,0,0.04248971193415638,16.99588477366255,0)" xlink:href="#aM"/></g><path d="M101-251c68 0 85 55 85 127S166 4 100 4C33 4 14-52 14-124c0-73 17-127 87-127zm-1 229c47 0 54-49 54-102s-4-102-53-102c-51 0-55 48-55 102 0 53 5 102 54 102" id="aN"/><path d="M126-127c33 6 58 20 58 59 0 88-139 92-164 29-3-8-5-16-6-25l32-3c6 27 21 44 54 44 32 0 52-15 52-46 0-38-36-46-79-43v-28c39 1 72-4 72-42 0-27-17-43-46-43-28 0-47 15-49 41l-32-3c6-42 35-63 81-64 48-1 79 21 79 65 0 36-21 52-52 59" id="aO"/><g id="l"><use transform="matrix(0.04248971193415638,0,0,0.04248971193415638,0,0)" xlink:href="#aK"/><use transform="matrix(0.04248971193415638,0,0,0.04248971193415638,8.497942386831275,0)" xlink:href="#aN"/><use transform="matrix(0.04248971193415638,0,0,0.04248971193415638,16.99588477366255,0)" xlink:href="#aK"/><use transform="matrix(0.04248971193415638,0,0,0.04248971193415638,25.493827160493822,0)" xlink:href="#aO"/></g><path fill="#333" d="M182-130c37 4 62 22 62 59C244 23 116-4 24 0v-248c84 5 203-23 205 63 0 31-19 50-47 55zM76-148c40-3 101 13 101-30 0-44-60-28-101-31v61zm0 110c48-3 116 14 116-37 0-48-69-32-116-35v72" id="aP"/><path fill="#333" d="M25-224v-37h50v37H25zM25 0v-190h50V0H25" id="aQ"/><path fill="#333" d="M190-63c-7 42-38 67-86 67-59 0-84-38-90-98-12-110 154-137 174-36l-49 2c-2-19-15-32-35-32-30 0-35 28-38 64-6 74 65 87 74 30" id="aR"/><path fill="#333" d="M25 0v-261h50V0H25" id="aS"/><path fill="#333" d="M185-48c-13 30-37 53-82 52C43 2 14-33 14-96s30-98 90-98c62 0 83 45 84 108H66c0 31 8 55 39 56 18 0 30-7 34-22zm-45-69c5-46-57-63-70-21-2 6-4 13-4 21h74" id="aT"/><path fill="#333" d="M115-3C79 11 28 4 28-45v-112H4v-33h27l15-45h31v45h36v33H77v99c-1 23 16 31 38 25v30" id="aU"/><path fill="#333" d="M133-34C117-15 103 5 69 4 32 3 11-16 11-54c-1-60 55-63 116-61 1-26-3-47-28-47-18 1-26 9-28 27l-52-2c7-38 36-58 82-57s74 22 75 68l1 82c-1 14 12 18 25 15v27c-30 8-71 5-69-32zm-48 3c29 0 43-24 42-57-32 0-66-3-65 30 0 17 8 27 23 27" id="aV"/><g id="m"><use transform="matrix(0.05,0,0,0.05,0,0)" xlink:href="#aP"/><use transform="matrix(0.05,0,0,0.05,12.950000000000001,0)" xlink:href="#aQ"/><use transform="matrix(0.05,0,0,0.05,17.950000000000003,0)" xlink:href="#aR"/><use transform="matrix(0.05,0,0,0.05,27.950000000000003,0)" xlink:href="#aQ"/><use transform="matrix(0.05,0,0,0.05,32.95,0)" xlink:href="#aR"/><use transform="matrix(0.05,0,0,0.05,42.95,0)" xlink:href="#aS"/><use transform="matrix(0.05,0,0,0.05,47.95,0)" xlink:href="#aT"/><use transform="matrix(0.05,0,0,0.05,57.95,0)" xlink:href="#aU"/><use transform="matrix(0.05,0,0,0.05,63.900000000000006,0)" xlink:href="#aV"/></g><path fill="#333" d="M16-82v-28h88v28H16" id="aW"/><use transform="matrix(0.05,0,0,0.05,0,0)" xlink:href="#aW" id="n"/><path fill="#333" d="M115-194c55 1 70 41 70 98S169 2 115 4C84 4 66-9 55-30l1 105H24l-1-265h31l2 30c10-21 28-34 59-34zm-8 174c40 0 45-34 45-75s-6-73-45-74c-42 0-51 32-51 76 0 43 10 73 51 73" id="aX"/><path fill="#333" d="M114-163C36-179 61-72 57 0H25l-1-190h30c1 12-1 29 2 39 6-27 23-49 58-41v29" id="aY"/><path fill="#333" d="M100-194c63 0 86 42 84 106H49c0 40 14 67 53 68 26 1 43-12 49-29l28 8c-11 28-37 45-77 45C44 4 14-33 15-96c1-61 26-98 85-98zm52 81c6-60-76-77-97-28-3 7-6 17-6 28h103" id="aZ"/><path fill="#333" d="M96-169c-40 0-48 33-48 73s9 75 48 75c24 0 41-14 43-38l32 2c-6 37-31 61-74 61-59 0-76-41-82-99-10-93 101-131 147-64 4 7 5 14 7 22l-32 3c-4-21-16-35-41-35" id="ba"/><path fill="#333" d="M100-194c62-1 85 37 85 99 1 63-27 99-86 99S16-35 15-95c0-66 28-99 85-99zM99-20c44 1 53-31 53-75 0-43-8-75-51-75s-53 32-53 75 10 74 51 75" id="bb"/><path fill="#333" d="M33-154v-36h34v36H33zM33 0v-36h34V0H33" id="bc"/><path fill="#333" d="M85-194c31 0 48 13 60 33l-1-100h32l1 261h-30c-2-10 0-23-3-31C134-8 116 4 85 4 32 4 16-35 15-94c0-66 23-100 70-100zm9 24c-40 0-46 34-46 75 0 40 6 74 45 74 42 0 51-32 51-76 0-42-9-74-50-73" id="bd"/><path fill="#333" d="M84 4C-5 8 30-112 23-190h32v120c0 31 7 50 39 49 72-2 45-101 50-169h31l1 190h-30c-1-10 1-25-2-33-11 22-28 36-60 37" id="be"/><path fill="#333" d="M115-194c53 0 69 39 70 98 0 66-23 100-70 100C84 3 66-7 56-30L54 0H23l1-261h32v101c10-23 28-34 59-34zm-8 174c40 0 45-34 45-75 0-40-5-75-45-74-42 0-51 32-51 76 0 43 10 73 51 73" id="bf"/><path fill="#333" d="M24 0v-261h32V0H24" id="bg"/><g id="o"><use transform="matrix(0.05,0,0,0.05,0,0)" xlink:href="#aX"/><use transform="matrix(0.05,0,0,0.05,10,0)" xlink:href="#aY"/><use transform="matrix(0.05,0,0,0.05,15.949999999999998,0)" xlink:href="#aZ"/><use transform="matrix(0.05,0,0,0.05,25.950000000000003,0)" xlink:href="#ba"/><use transform="matrix(0.05,0,0,0.05,34.95,0)" xlink:href="#bb"/><use transform="matrix(0.05,0,0,0.05,44.95,0)" xlink:href="#bc"/><use transform="matrix(0.05,0,0,0.05,49.95,0)" xlink:href="#bd"/><use transform="matrix(0.05,0,0,0.05,59.95,0)" xlink:href="#bb"/><use transform="matrix(0.05,0,0,0.05,69.95,0)" xlink:href="#be"/><use transform="matrix(0.05,0,0,0.05,79.95,0)" xlink:href="#bf"/><use transform="matrix(0.05,0,0,0.05,89.95,0)" xlink:href="#bg"/><use transform="matrix(0.05,0,0,0.05,93.9,0)" xlink:href="#aZ"/></g><path fill="#333" d="M185-189c-5-48-123-54-124 2 14 75 158 14 163 119 3 78-121 87-175 55-17-10-28-26-33-46l33-7c5 56 141 63 141-1 0-78-155-14-162-118-5-82 145-84 179-34 5 7 8 16 11 25" id="bh"/><path fill="#333" d="M59-47c-2 24 18 29 38 22v24C64 9 27 4 27-40v-127H5v-23h24l9-43h21v43h35v23H59v120" id="bi"/><path fill="#333" d="M24-231v-30h32v30H24zM24 0v-190h32V0H24" id="bj"/><path fill="#333" d="M117-194c89-4 53 116 60 194h-32v-121c0-31-8-49-39-48C34-167 62-67 57 0H25l-1-190h30c1 10-1 24 2 32 11-22 29-35 61-36" id="bk"/><path fill="#333" d="M177-190C167-65 218 103 67 71c-23-6-38-20-44-43l32-5c15 47 100 32 89-28v-30C133-14 115 1 83 1 29 1 15-40 15-95c0-56 16-97 71-98 29-1 48 16 59 35 1-10 0-23 2-32h30zM94-22c36 0 50-32 50-73 0-42-14-75-50-75-39 0-46 34-46 75s6 73 46 73" id="bl"/><g id="p"><use transform="matrix(0.05,0,0,0.05,0,0)" xlink:href="#ba"/><use transform="matrix(0.05,0,0,0.05,9,0)" xlink:href="#bb"/><use transform="matrix(0.05,0,0,0.05,19,0)" xlink:href="#aY"/><use transform="matrix(0.05,0,0,0.05,24.95,0)" xlink:href="#bc"/><use transform="matrix(0.05,0,0,0.05,29.950000000000003,0)" xlink:href="#bh"/><use transform="matrix(0.05,0,0,0.05,41.95,0)" xlink:href="#bi"/><use transform="matrix(0.05,0,0,0.05,46.95,0)" xlink:href="#aY"/><use transform="matrix(0.05,0,0,0.05,52.900000000000006,0)" xlink:href="#bj"/><use transform="matrix(0.05,0,0,0.05,56.85,0)" xlink:href="#bk"/><use transform="matrix(0.05,0,0,0.05,66.85000000000001,0)" xlink:href="#bl"/></g><path fill="#333" d="M141-36C126-15 110 5 73 4 37 3 15-17 15-53c-1-64 63-63 125-63 3-35-9-54-41-54-24 1-41 7-42 31l-33-3c5-37 33-52 76-52 45 0 72 20 72 64v82c-1 20 7 32 28 27v20c-31 9-61-2-59-35zM48-53c0 20 12 33 32 33 41-3 63-29 60-74-43 2-92-5-92 41" id="bm"/><path fill="#333" d="M63-220v92h138v28H63V0H30v-248h175v28H63" id="bn"/><g id="q"><use transform="matrix(0.05,0,0,0.05,0,0)" xlink:href="#bm"/><use transform="matrix(0.05,0,0,0.05,10,0)" xlink:href="#bk"/><use transform="matrix(0.05,0,0,0.05,20,0)" xlink:href="#bb"/><use transform="matrix(0.05,0,0,0.05,30,0)" xlink:href="#bn"/><use transform="matrix(0.05,0,0,0.05,40.95,0)" xlink:href="#bm"/><use transform="matrix(0.05,0,0,0.05,50.95,0)" xlink:href="#bf"/><use transform="matrix(0.05,0,0,0.05,60.95,0)" xlink:href="#aY"/><use transform="matrix(0.05,0,0,0.05,66.9,0)" xlink:href="#bj"/><use transform="matrix(0.05,0,0,0.05,70.85000000000001,0)" xlink:href="#ba"/><use transform="matrix(0.05,0,0,0.05,79.85000000000001,0)" xlink:href="#bm"/><use transform="matrix(0.05,0,0,0.05,89.85000000000001,0)" xlink:href="#ba"/><use transform="matrix(0.05,0,0,0.05,98.85000000000001,0)" xlink:href="#bm"/><use transform="matrix(0.05,0,0,0.05,108.85000000000001,0)" xlink:href="#bb"/><use transform="matrix(0.05,0,0,0.05,118.85000000000001,0)" xlink:href="#bc"/><use transform="matrix(0.05,0,0,0.05,123.85000000000001,0)" xlink:href="#bj"/><use transform="matrix(0.05,0,0,0.05,127.80000000000001,0)" xlink:href="#bk"/><use transform="matrix(0.05,0,0,0.05,137.8,0)" xlink:href="#bi"/></g><path fill="#333" d="M118-107v75H92v-75H18v-26h74v-75h26v75h74v26h-74" id="bo"/><use transform="matrix(0.05,0,0,0.05,0,0)" xlink:href="#bo" id="r"/><path fill="#333" d="M30-248c87 1 191-15 191 75 0 78-77 80-158 76V0H30v-248zm33 125c57 0 124 11 124-50 0-59-68-47-124-48v98" id="bp"/><path fill="#333" d="M87 75C49 33 22-17 22-94c0-76 28-126 65-167h31c-38 41-64 92-64 168S80 34 118 75H87" id="bq"/><path fill="#333" d="M33-261c38 41 65 92 65 168S71 34 33 75H2C39 34 66-17 66-93S39-220 2-261h31" id="br"/><g id="s"><use transform="matrix(0.05,0,0,0.05,0,0)" xlink:href="#bl"/><use transform="matrix(0.05,0,0,0.05,10,0)" xlink:href="#aZ"/><use transform="matrix(0.05,0,0,0.05,20,0)" xlink:href="#bi"/><use transform="matrix(0.05,0,0,0.05,25,0)" xlink:href="#bp"/><use transform="matrix(0.05,0,0,0.05,37,0)" xlink:href="#aY"/><use transform="matrix(0.05,0,0,0.05,42.95,0)" xlink:href="#aZ"/><use transform="matrix(0.05,0,0,0.05,52.95,0)" xlink:href="#ba"/><use transform="matrix(0.05,0,0,0.05,61.95,0)" xlink:href="#bb"/><use transform="matrix(0.05,0,0,0.05,71.95,0)" xlink:href="#bq"/><use transform="matrix(0.05,0,0,0.05,77.9,0)" xlink:href="#br"/><use transform="matrix(0.05,0,0,0.05,83.85000000000001,0)" xlink:href="#bc"/><use transform="matrix(0.05,0,0,0.05,88.85000000000001,0)" xlink:href="#bd"/><use transform="matrix(0.05,0,0,0.05,98.85000000000001,0)" xlink:href="#bb"/><use transform="matrix(0.05,0,0,0.05,108.85000000000001,0)" xlink:href="#be"/><use transform="matrix(0.05,0,0,0.05,118.85000000000001,0)" xlink:href="#bf"/><use transform="matrix(0.05,0,0,0.05,128.85000000000002,0)" xlink:href="#bg"/><use transform="matrix(0.05,0,0,0.05,132.8,0)" xlink:href="#aZ"/></g><path fill="#333" d="M135-143c-3-34-86-38-87 0 15 53 115 12 119 90S17 21 10-45l28-5c4 36 97 45 98 0-10-56-113-15-118-90-4-57 82-63 122-42 12 7 21 19 24 35" id="bs"/><g id="t"><use transform="matrix(0.05,0,0,0.05,0,0)" xlink:href="#bs"/><use transform="matrix(0.05,0,0,0.05,9,0)" xlink:href="#aZ"/><use transform="matrix(0.05,0,0,0.05,19,0)" xlink:href="#bi"/><use transform="matrix(0.05,0,0,0.05,24,0)" xlink:href="#bp"/><use transform="matrix(0.05,0,0,0.05,36,0)" xlink:href="#aY"/><use transform="matrix(0.05,0,0,0.05,41.95,0)" xlink:href="#aZ"/><use transform="matrix(0.05,0,0,0.05,51.95,0)" xlink:href="#ba"/><use transform="matrix(0.05,0,0,0.05,60.95,0)" xlink:href="#bb"/><use transform="matrix(0.05,0,0,0.05,70.95,0)" xlink:href="#bq"/><use transform="matrix(0.05,0,0,0.05,76.9,0)" xlink:href="#aX"/><use transform="matrix(0.05,0,0,0.05,86.9,0)" xlink:href="#aY"/><use transform="matrix(0.05,0,0,0.05,92.85000000000001,0)" xlink:href="#aZ"/><use transform="matrix(0.05,0,0,0.05,102.85000000000001,0)" xlink:href="#ba"/><use transform="matrix(0.05,0,0,0.05,111.85000000000001,0)" xlink:href="#bb"/><use transform="matrix(0.05,0,0,0.05,121.85000000000001,0)" xlink:href="#bc"/><use transform="matrix(0.05,0,0,0.05,126.85000000000001,0)" xlink:href="#bd"/><use transform="matrix(0.05,0,0,0.05,136.85000000000002,0)" xlink:href="#bb"/><use transform="matrix(0.05,0,0,0.05,146.85000000000002,0)" xlink:href="#be"/><use transform="matrix(0.05,0,0,0.05,156.85000000000002,0)" xlink:href="#bf"/><use transform="matrix(0.05,0,0,0.05,166.85000000000002,0)" xlink:href="#bg"/><use transform="matrix(0.05,0,0,0.05,170.8,0)" xlink:href="#aZ"/><use transform="matrix(0.05,0,0,0.05,180.8,0)" xlink:href="#br"/></g><path fill="#333" d="M212-179c-10-28-35-45-73-45-59 0-87 40-87 99 0 60 29 101 89 101 43 0 62-24 78-52l27 14C228-24 195 4 139 4 59 4 22-46 18-125c-6-104 99-153 187-111 19 9 31 26 39 46" id="bt"/><g id="u"><use transform="matrix(0.05,0,0,0.05,0,0)" xlink:href="#bl"/><use transform="matrix(0.05,0,0,0.05,10,0)" xlink:href="#aZ"/><use transform="matrix(0.05,0,0,0.05,20,0)" xlink:href="#bi"/><use transform="matrix(0.05,0,0,0.05,25,0)" xlink:href="#bt"/><use transform="matrix(0.05,0,0,0.05,37.95,0)" xlink:href="#bb"/><use transform="matrix(0.05,0,0,0.05,47.95,0)" xlink:href="#aY"/><use transform="matrix(0.05,0,0,0.05,53.900000000000006,0)" xlink:href="#bq"/><use transform="matrix(0.05,0,0,0.05,59.85,0)" xlink:href="#br"/><use transform="matrix(0.05,0,0,0.05,65.80000000000001,0)" xlink:href="#bc"/><use transform="matrix(0.05,0,0,0.05,70.80000000000001,0)" xlink:href="#bh"/><use transform="matrix(0.05,0,0,0.05,82.80000000000001,0)" xlink:href="#bi"/><use transform="matrix(0.05,0,0,0.05,87.80000000000001,0)" xlink:href="#aY"/><use transform="matrix(0.05,0,0,0.05,93.75000000000001,0)" xlink:href="#bj"/><use transform="matrix(0.05,0,0,0.05,97.70000000000002,0)" xlink:href="#bk"/><use transform="matrix(0.05,0,0,0.05,107.7,0)" xlink:href="#bl"/></g><g id="v"><use transform="matrix(0.05,0,0,0.05,0,0)" xlink:href="#bs"/><use transform="matrix(0.05,0,0,0.05,9,0)" xlink:href="#aZ"/><use transform="matrix(0.05,0,0,0.05,19,0)" xlink:href="#bi"/><use transform="matrix(0.05,0,0,0.05,24,0)" xlink:href="#bt"/><use transform="matrix(0.05,0,0,0.05,36.95,0)" xlink:href="#bb"/><use transform="matrix(0.05,0,0,0.05,46.95,0)" xlink:href="#aY"/><use transform="matrix(0.05,0,0,0.05,52.900000000000006,0)" xlink:href="#bq"/><use transform="matrix(0.05,0,0,0.05,58.85,0)" xlink:href="#ba"/><use transform="matrix(0.05,0,0,0.05,67.85000000000001,0)" xlink:href="#bb"/><use transform="matrix(0.05,0,0,0.05,77.85000000000001,0)" xlink:href="#aY"/><use transform="matrix(0.05,0,0,0.05,83.80000000000001,0)" xlink:href="#bc"/><use transform="matrix(0.05,0,0,0.05,88.80000000000001,0)" xlink:href="#bh"/><use transform="matrix(0.05,0,0,0.05,100.80000000000001,0)" xlink:href="#bi"/><use transform="matrix(0.05,0,0,0.05,105.80000000000001,0)" xlink:href="#aY"/><use transform="matrix(0.05,0,0,0.05,111.75,0)" xlink:href="#bj"/><use transform="matrix(0.05,0,0,0.05,115.7,0)" xlink:href="#bk"/><use transform="matrix(0.05,0,0,0.05,125.7,0)" xlink:href="#bl"/><use transform="matrix(0.05,0,0,0.05,135.70000000000002,0)" xlink:href="#br"/></g><path fill="#333" d="M205 0l-28-72H64L36 0H1l101-248h38L239 0h-34zm-38-99l-47-123c-12 45-31 82-46 123h93" id="bu"/><g id="w"><use transform="matrix(0.05,0,0,0.05,0,0)" xlink:href="#bl"/><use transform="matrix(0.05,0,0,0.05,10,0)" xlink:href="#aZ"/><use transform="matrix(0.05,0,0,0.05,20,0)" xlink:href="#bi"/><use transform="matrix(0.05,0,0,0.05,25,0)" xlink:href="#bu"/><use transform="matrix(0.05,0,0,0.05,37,0)" xlink:href="#bk"/><use transform="matrix(0.05,0,0,0.05,47,0)" xlink:href="#bb"/><use transform="matrix(0.05,0,0,0.05,57,0)" xlink:href="#bn"/><use transform="matrix(0.05,0,0,0.05,67.95,0)" xlink:href="#bm"/><use transform="matrix(0.05,0,0,0.05,77.95,0)" xlink:href="#bf"/><use transform="matrix(0.05,0,0,0.05,87.95,0)" xlink:href="#aY"/><use transform="matrix(0.05,0,0,0.05,93.9,0)" xlink:href="#bj"/><use transform="matrix(0.05,0,0,0.05,97.85000000000001,0)" xlink:href="#ba"/><use transform="matrix(0.05,0,0,0.05,106.85000000000001,0)" xlink:href="#bm"/><use transform="matrix(0.05,0,0,0.05,116.85000000000001,0)" xlink:href="#ba"/><use transform="matrix(0.05,0,0,0.05,125.85000000000001,0)" xlink:href="#bm"/><use transform="matrix(0.05,0,0,0.05,135.85000000000002,0)" xlink:href="#bb"/><use transform="matrix(0.05,0,0,0.05,145.85000000000002,0)" xlink:href="#bq"/><use transform="matrix(0.05,0,0,0.05,151.8,0)" xlink:href="#br"/><use transform="matrix(0.05,0,0,0.05,157.75,0)" xlink:href="#bc"/><use transform="matrix(0.05,0,0,0.05,162.75,0)" xlink:href="#bj"/><use transform="matrix(0.05,0,0,0.05,166.7,0)" xlink:href="#bk"/><use transform="matrix(0.05,0,0,0.05,176.7,0)" xlink:href="#bi"/></g><g id="x"><use transform="matrix(0.05,0,0,0.05,0,0)" xlink:href="#bs"/><use transform="matrix(0.05,0,0,0.05,9,0)" xlink:href="#aZ"/><use transform="matrix(0.05,0,0,0.05,19,0)" xlink:href="#bi"/><use transform="matrix(0.05,0,0,0.05,24,0)" xlink:href="#bu"/><use transform="matrix(0.05,0,0,0.05,36,0)" xlink:href="#bk"/><use transform="matrix(0.05,0,0,0.05,46,0)" xlink:href="#bb"/><use transform="matrix(0.05,0,0,0.05,56,0)" xlink:href="#bn"/><use transform="matrix(0.05,0,0,0.05,66.95,0)" xlink:href="#bm"/><use transform="matrix(0.05,0,0,0.05,76.95,0)" xlink:href="#bf"/><use transform="matrix(0.05,0,0,0.05,86.95,0)" xlink:href="#aY"/><use transform="matrix(0.05,0,0,0.05,92.9,0)" xlink:href="#bj"/><use transform="matrix(0.05,0,0,0.05,96.85000000000001,0)" xlink:href="#ba"/><use transform="matrix(0.05,0,0,0.05,105.85000000000001,0)" xlink:href="#bm"/><use transform="matrix(0.05,0,0,0.05,115.85000000000001,0)" xlink:href="#ba"/><use transform="matrix(0.05,0,0,0.05,124.85000000000001,0)" xlink:href="#bm"/><use transform="matrix(0.05,0,0,0.05,134.85000000000002,0)" xlink:href="#bb"/><use transform="matrix(0.05,0,0,0.05,144.85000000000002,0)" xlink:href="#bq"/><use transform="matrix(0.05,0,0,0.05,150.8,0)" xlink:href="#bm"/><use transform="matrix(0.05,0,0,0.05,160.8,0)" xlink:href="#bk"/><use transform="matrix(0.05,0,0,0.05,170.8,0)" xlink:href="#bb"/><use transform="matrix(0.05,0,0,0.05,180.8,0)" xlink:href="#bn"/><use transform="matrix(0.05,0,0,0.05,191.75,0)" xlink:href="#bm"/><use transform="matrix(0.05,0,0,0.05,201.75,0)" xlink:href="#bf"/><use transform="matrix(0.05,0,0,0.05,211.75,0)" xlink:href="#aY"/><use transform="matrix(0.05,0,0,0.05,217.69999999999996,0)" xlink:href="#bj"/><use transform="matrix(0.05,0,0,0.05,221.64999999999998,0)" xlink:href="#ba"/><use transform="matrix(0.05,0,0,0.05,230.64999999999998,0)" xlink:href="#bm"/><use transform="matrix(0.05,0,0,0.05,240.64999999999998,0)" xlink:href="#ba"/><use transform="matrix(0.05,0,0,0.05,249.64999999999998,0)" xlink:href="#bm"/><use transform="matrix(0.05,0,0,0.05,259.65,0)" xlink:href="#bb"/><use transform="matrix(0.05,0,0,0.05,269.65,0)" xlink:href="#bc"/><use transform="matrix(0.05,0,0,0.05,274.65,0)" xlink:href="#bj"/><use transform="matrix(0.05,0,0,0.05,278.59999999999997,0)" xlink:href="#bk"/><use transform="matrix(0.05,0,0,0.05,288.59999999999997,0)" xlink:href="#bi"/><use transform="matrix(0.05,0,0,0.05,293.59999999999997,0)" xlink:href="#br"/></g><path fill="#333" d="M24-248c93 1 206-16 204 79-1 75-69 88-152 82V0H24v-248zm52 121c47 0 100 7 100-41 0-47-54-39-100-39v80" id="bv"/><path fill="#333" d="M135-150c-39-12-60 13-60 57V0H25l-1-190h47c2 13-1 29 3 40 6-28 27-53 61-41v41" id="bw"/><path fill="#333" d="M85 4C-2 5 27-109 22-190h50c7 57-23 150 33 157 60-5 35-97 40-157h50l1 190h-47c-2-12 1-28-3-38-12 25-28 42-61 42" id="bx"/><path fill="#333" d="M137-138c1-29-70-34-71-4 15 46 118 7 119 86 1 83-164 76-172 9l43-7c4 19 20 25 44 25 33 8 57-30 24-41C81-84 22-81 20-136c-2-80 154-74 161-7" id="by"/><path fill="#333" d="M110-194c64 0 96 36 96 99 0 64-35 99-97 99-61 0-95-36-95-99 0-62 34-99 96-99zm-1 164c35 0 45-28 45-65 0-40-10-65-43-65-34 0-45 26-45 65 0 36 10 65 43 65" id="bz"/><g id="y"><use transform="matrix(0.05,0,0,0.05,0,0)" xlink:href="#bv"/><use transform="matrix(0.05,0,0,0.05,12,0)" xlink:href="#aT"/><use transform="matrix(0.05,0,0,0.05,22,0)" xlink:href="#bw"/><use transform="matrix(0.05,0,0,0.05,29,0)" xlink:href="#aR"/><use transform="matrix(0.05,0,0,0.05,39,0)" xlink:href="#bx"/><use transform="matrix(0.05,0,0,0.05,49.95,0)" xlink:href="#bw"/><use transform="matrix(0.05,0,0,0.05,56.95,0)" xlink:href="#by"/><use transform="matrix(0.05,0,0,0.05,66.95,0)" xlink:href="#bz"/></g><g id="z"><use transform="matrix(0.05,0,0,0.05,0,0)" xlink:href="#bd"/><use transform="matrix(0.05,0,0,0.05,10,0)" xlink:href="#bj"/><use transform="matrix(0.05,0,0,0.05,13.949999999999998,0)" xlink:href="#bs"/><use transform="matrix(0.05,0,0,0.05,22.95,0)" xlink:href="#bi"/><use transform="matrix(0.05,0,0,0.05,27.950000000000003,0)" xlink:href="#bm"/><use transform="matrix(0.05,0,0,0.05,37.95,0)" xlink:href="#bk"/><use transform="matrix(0.05,0,0,0.05,47.95,0)" xlink:href="#ba"/><use transform="matrix(0.05,0,0,0.05,56.95,0)" xlink:href="#bj"/><use transform="matrix(0.05,0,0,0.05,60.900000000000006,0)" xlink:href="#bm"/><use transform="matrix(0.05,0,0,0.05,70.9,0)" xlink:href="#bc"/><use transform="matrix(0.05,0,0,0.05,75.9,0)" xlink:href="#bd"/><use transform="matrix(0.05,0,0,0.05,85.9,0)" xlink:href="#bb"/><use transform="matrix(0.05,0,0,0.05,95.9,0)" xlink:href="#be"/><use transform="matrix(0.05,0,0,0.05,105.9,0)" xlink:href="#bf"/><use transform="matrix(0.05,0,0,0.05,115.9,0)" xlink:href="#bg"/><use transform="matrix(0.05,0,0,0.05,119.85000000000001,0)" xlink:href="#aZ"/></g><path fill="#333" d="M33 0v-248h34V0H33" id="bA"/><g id="A"><use transform="matrix(0.05,0,0,0.05,0,0)" xlink:href="#bg"/><use transform="matrix(0.05,0,0,0.05,3.95,0)" xlink:href="#be"/><use transform="matrix(0.05,0,0,0.05,13.949999999999998,0)" xlink:href="#bl"/><use transform="matrix(0.05,0,0,0.05,23.95,0)" xlink:href="#bm"/><use transform="matrix(0.05,0,0,0.05,33.95,0)" xlink:href="#aY"/><use transform="matrix(0.05,0,0,0.05,39.900000000000006,0)" xlink:href="#bA"/><use transform="matrix(0.05,0,0,0.05,44.900000000000006,0)" xlink:href="#bk"/><use transform="matrix(0.05,0,0,0.05,54.900000000000006,0)" xlink:href="#bj"/><use transform="matrix(0.05,0,0,0.05,58.85,0)" xlink:href="#ba"/><use transform="matrix(0.05,0,0,0.05,67.85000000000001,0)" xlink:href="#bj"/><use transform="matrix(0.05,0,0,0.05,71.80000000000001,0)" xlink:href="#bb"/><use transform="matrix(0.05,0,0,0.05,81.80000000000001,0)" xlink:href="#bc"/><use transform="matrix(0.05,0,0,0.05,86.80000000000001,0)" xlink:href="#bh"/><use transform="matrix(0.05,0,0,0.05,98.80000000000001,0)" xlink:href="#bi"/><use transform="matrix(0.05,0,0,0.05,103.80000000000001,0)" xlink:href="#aY"/><use transform="matrix(0.05,0,0,0.05,109.75,0)" xlink:href="#bj"/><use transform="matrix(0.05,0,0,0.05,113.7,0)" xlink:href="#bk"/><use transform="matrix(0.05,0,0,0.05,123.7,0)" xlink:href="#bl"/></g><path fill="#333" d="M210-169c-67 3-38 105-44 169h-31v-121c0-29-5-50-35-48C34-165 62-65 56 0H25l-1-190h30c1 10-1 24 2 32 10-44 99-50 107 0 11-21 27-35 58-36 85-2 47 119 55 194h-31v-121c0-29-5-49-35-48" id="bB"/><g id="B"><use transform="matrix(0.05,0,0,0.05,0,0)" xlink:href="#bg"/><use transform="matrix(0.05,0,0,0.05,3.95,0)" xlink:href="#be"/><use transform="matrix(0.05,0,0,0.05,13.949999999999998,0)" xlink:href="#bl"/><use transform="matrix(0.05,0,0,0.05,23.95,0)" xlink:href="#bm"/><use transform="matrix(0.05,0,0,0.05,33.95,0)" xlink:href="#aY"/><use transform="matrix(0.05,0,0,0.05,39.900000000000006,0)" xlink:href="#bn"/><use transform="matrix(0.05,0,0,0.05,50.85000000000001,0)" xlink:href="#bj"/><use transform="matrix(0.05,0,0,0.05,54.80000000000001,0)" xlink:href="#bB"/><use transform="matrix(0.05,0,0,0.05,69.75000000000001,0)" xlink:href="#bc"/><use transform="matrix(0.05,0,0,0.05,74.75000000000001,0)" xlink:href="#bh"/><use transform="matrix(0.05,0,0,0.05,86.75000000000001,0)" xlink:href="#bi"/><use transform="matrix(0.05,0,0,0.05,91.75000000000001,0)" xlink:href="#aY"/><use transform="matrix(0.05,0,0,0.05,97.70000000000002,0)" xlink:href="#bj"/><use transform="matrix(0.05,0,0,0.05,101.65000000000002,0)" xlink:href="#bk"/><use transform="matrix(0.05,0,0,0.05,111.65000000000003,0)" xlink:href="#bl"/></g><path fill="#333" d="M30-248c118-7 216 8 213 122C240-48 200 0 122 0H30v-248zM63-27c89 8 146-16 146-99s-60-101-146-95v194" id="bC"/><g id="C"><use transform="matrix(0.05,0,0,0.05,0,0)" xlink:href="#bl"/><use transform="matrix(0.05,0,0,0.05,10,0)" xlink:href="#aZ"/><use transform="matrix(0.05,0,0,0.05,20,0)" xlink:href="#bi"/><use transform="matrix(0.05,0,0,0.05,25,0)" xlink:href="#bC"/><use transform="matrix(0.05,0,0,0.05,37.95,0)" xlink:href="#bj"/><use transform="matrix(0.05,0,0,0.05,41.900000000000006,0)" xlink:href="#bs"/><use transform="matrix(0.05,0,0,0.05,50.900000000000006,0)" xlink:href="#bi"/><use transform="matrix(0.05,0,0,0.05,55.900000000000006,0)" xlink:href="#bm"/><use transform="matrix(0.05,0,0,0.05,65.9,0)" xlink:href="#bk"/><use transform="matrix(0.05,0,0,0.05,75.9,0)" xlink:href="#ba"/><use transform="matrix(0.05,0,0,0.05,84.9,0)" xlink:href="#bj"/><use transform="matrix(0.05,0,0,0.05,88.85000000000001,0)" xlink:href="#bm"/><use transform="matrix(0.05,0,0,0.05,98.85000000000001,0)" xlink:href="#bq"/><use transform="matrix(0.05,0,0,0.05,104.80000000000001,0)" xlink:href="#br"/><use transform="matrix(0.05,0,0,0.05,110.75,0)" xlink:href="#bc"/><use transform="matrix(0.05,0,0,0.05,115.75,0)" xlink:href="#bd"/><use transform="matrix(0.05,0,0,0.05,125.75,0)" xlink:href="#bb"/><use transform="matrix(0.05,0,0,0.05,135.75,0)" xlink:href="#be"/><use transform="matrix(0.05,0,0,0.05,145.75,0)" xlink:href="#bf"/><use transform="matrix(0.05,0,0,0.05,155.75,0)" xlink:href="#bg"/><use transform="matrix(0.05,0,0,0.05,159.7,0)" xlink:href="#aZ"/></g><g id="D"><use transform="matrix(0.05,0,0,0.05,0,0)" xlink:href="#bs"/><use transform="matrix(0.05,0,0,0.05,9,0)" xlink:href="#aZ"/><use transform="matrix(0.05,0,0,0.05,19,0)" xlink:href="#bi"/><use transform="matrix(0.05,0,0,0.05,24,0)" xlink:href="#bC"/><use transform="matrix(0.05,0,0,0.05,36.95,0)" xlink:href="#bj"/><use transform="matrix(0.05,0,0,0.05,40.900000000000006,0)" xlink:href="#bs"/><use transform="matrix(0.05,0,0,0.05,49.900000000000006,0)" xlink:href="#bi"/><use transform="matrix(0.05,0,0,0.05,54.900000000000006,0)" xlink:href="#bm"/><use transform="matrix(0.05,0,0,0.05,64.9,0)" xlink:href="#bk"/><use transform="matrix(0.05,0,0,0.05,74.9,0)" xlink:href="#ba"/><use transform="matrix(0.05,0,0,0.05,83.9,0)" xlink:href="#bj"/><use transform="matrix(0.05,0,0,0.05,87.85000000000001,0)" xlink:href="#bm"/><use transform="matrix(0.05,0,0,0.05,97.85000000000001,0)" xlink:href="#bq"/><use transform="matrix(0.05,0,0,0.05,103.80000000000001,0)" xlink:href="#bd"/><use transform="matrix(0.05,0,0,0.05,113.80000000000001,0)" xlink:href="#bj"/><use transform="matrix(0.05,0,0,0.05,117.75,0)" xlink:href="#bs"/><use transform="matrix(0.05,0,0,0.05,126.75,0)" xlink:href="#bi"/><use transform="matrix(0.05,0,0,0.05,131.75,0)" xlink:href="#bm"/><use transform="matrix(0.05,0,0,0.05,141.75,0)" xlink:href="#bk"/><use transform="matrix(0.05,0,0,0.05,151.75,0)" xlink:href="#ba"/><use transform="matrix(0.05,0,0,0.05,160.75,0)" xlink:href="#bj"/><use transform="matrix(0.05,0,0,0.05,164.7,0)" xlink:href="#bm"/><use transform="matrix(0.05,0,0,0.05,174.7,0)" xlink:href="#bc"/><use transform="matrix(0.05,0,0,0.05,179.7,0)" xlink:href="#bd"/><use transform="matrix(0.05,0,0,0.05,189.7,0)" xlink:href="#bb"/><use transform="matrix(0.05,0,0,0.05,199.7,0)" xlink:href="#be"/><use transform="matrix(0.05,0,0,0.05,209.69999999999996,0)" xlink:href="#bf"/><use transform="matrix(0.05,0,0,0.05,219.69999999999996,0)" xlink:href="#bg"/><use transform="matrix(0.05,0,0,0.05,223.64999999999998,0)" xlink:href="#aZ"/><use transform="matrix(0.05,0,0,0.05,233.64999999999998,0)" xlink:href="#br"/></g><path fill="#333" d="M30 0v-248h33v221h125V0H30" id="bD"/><g id="E"><use transform="matrix(0.05,0,0,0.05,0,0)" xlink:href="#bl"/><use transform="matrix(0.05,0,0,0.05,10,0)" xlink:href="#aZ"/><use transform="matrix(0.05,0,0,0.05,20,0)" xlink:href="#bi"/><use transform="matrix(0.05,0,0,0.05,25,0)" xlink:href="#bD"/><use transform="matrix(0.05,0,0,0.05,35,0)" xlink:href="#be"/><use transform="matrix(0.05,0,0,0.05,45,0)" xlink:href="#bl"/><use transform="matrix(0.05,0,0,0.05,55,0)" xlink:href="#bm"/><use transform="matrix(0.05,0,0,0.05,65,0)" xlink:href="#aY"/><use transform="matrix(0.05,0,0,0.05,70.95,0)" xlink:href="#bA"/><use transform="matrix(0.05,0,0,0.05,75.95,0)" xlink:href="#bk"/><use transform="matrix(0.05,0,0,0.05,85.95,0)" xlink:href="#bj"/><use transform="matrix(0.05,0,0,0.05,89.9,0)" xlink:href="#ba"/><use transform="matrix(0.05,0,0,0.05,98.9,0)" xlink:href="#bj"/><use transform="matrix(0.05,0,0,0.05,102.85000000000001,0)" xlink:href="#bb"/><use transform="matrix(0.05,0,0,0.05,112.85000000000001,0)" xlink:href="#bq"/><use transform="matrix(0.05,0,0,0.05,118.80000000000001,0)" xlink:href="#br"/><use transform="matrix(0.05,0,0,0.05,124.75,0)" xlink:href="#bc"/><use transform="matrix(0.05,0,0,0.05,129.75,0)" xlink:href="#bh"/><use transform="matrix(0.05,0,0,0.05,141.75,0)" xlink:href="#bi"/><use transform="matrix(0.05,0,0,0.05,146.75,0)" xlink:href="#aY"/><use transform="matrix(0.05,0,0,0.05,152.7,0)" xlink:href="#bj"/><use transform="matrix(0.05,0,0,0.05,156.64999999999998,0)" xlink:href="#bk"/><use transform="matrix(0.05,0,0,0.05,166.64999999999998,0)" xlink:href="#bl"/></g><g id="F"><use transform="matrix(0.05,0,0,0.05,0,0)" xlink:href="#bs"/><use transform="matrix(0.05,0,0,0.05,9,0)" xlink:href="#aZ"/><use transform="matrix(0.05,0,0,0.05,19,0)" xlink:href="#bi"/><use transform="matrix(0.05,0,0,0.05,24,0)" xlink:href="#bD"/><use transform="matrix(0.05,0,0,0.05,34,0)" xlink:href="#be"/><use transform="matrix(0.05,0,0,0.05,44,0)" xlink:href="#bl"/><use transform="matrix(0.05,0,0,0.05,54,0)" xlink:href="#bm"/><use transform="matrix(0.05,0,0,0.05,64,0)" xlink:href="#aY"/><use transform="matrix(0.05,0,0,0.05,69.95,0)" xlink:href="#bA"/><use transform="matrix(0.05,0,0,0.05,74.95,0)" xlink:href="#bk"/><use transform="matrix(0.05,0,0,0.05,84.95,0)" xlink:href="#bj"/><use transform="matrix(0.05,0,0,0.05,88.9,0)" xlink:href="#ba"/><use transform="matrix(0.05,0,0,0.05,97.9,0)" xlink:href="#bj"/><use transform="matrix(0.05,0,0,0.05,101.85000000000001,0)" xlink:href="#bb"/><use transform="matrix(0.05,0,0,0.05,111.85000000000001,0)" xlink:href="#bq"/><use transform="matrix(0.05,0,0,0.05,117.80000000000001,0)" xlink:href="#bg"/><use transform="matrix(0.05,0,0,0.05,121.75,0)" xlink:href="#be"/><use transform="matrix(0.05,0,0,0.05,131.75,0)" xlink:href="#bl"/><use transform="matrix(0.05,0,0,0.05,141.75,0)" xlink:href="#bm"/><use transform="matrix(0.05,0,0,0.05,151.75,0)" xlink:href="#aY"/><use transform="matrix(0.05,0,0,0.05,157.7,0)" xlink:href="#bA"/><use transform="matrix(0.05,0,0,0.05,162.7,0)" xlink:href="#bk"/><use transform="matrix(0.05,0,0,0.05,172.7,0)" xlink:href="#bj"/><use transform="matrix(0.05,0,0,0.05,176.64999999999998,0)" xlink:href="#ba"/><use transform="matrix(0.05,0,0,0.05,185.64999999999998,0)" xlink:href="#bj"/><use transform="matrix(0.05,0,0,0.05,189.59999999999997,0)" xlink:href="#bb"/><use transform="matrix(0.05,0,0,0.05,199.59999999999997,0)" xlink:href="#bc"/><use transform="matrix(0.05,0,0,0.05,204.59999999999997,0)" xlink:href="#bh"/><use transform="matrix(0.05,0,0,0.05,216.59999999999997,0)" xlink:href="#bi"/><use transform="matrix(0.05,0,0,0.05,221.59999999999997,0)" xlink:href="#aY"/><use transform="matrix(0.05,0,0,0.05,227.54999999999995,0)" xlink:href="#bj"/><use transform="matrix(0.05,0,0,0.05,231.49999999999991,0)" xlink:href="#bk"/><use transform="matrix(0.05,0,0,0.05,241.49999999999991,0)" xlink:href="#bl"/><use transform="matrix(0.05,0,0,0.05,251.49999999999991,0)" xlink:href="#br"/></g><g id="G"><use transform="matrix(0.05,0,0,0.05,0,0)" xlink:href="#bl"/><use transform="matrix(0.05,0,0,0.05,10,0)" xlink:href="#aZ"/><use transform="matrix(0.05,0,0,0.05,20,0)" xlink:href="#bi"/><use transform="matrix(0.05,0,0,0.05,25,0)" xlink:href="#bD"/><use transform="matrix(0.05,0,0,0.05,35,0)" xlink:href="#be"/><use transform="matrix(0.05,0,0,0.05,45,0)" xlink:href="#bl"/><use transform="matrix(0.05,0,0,0.05,55,0)" xlink:href="#bm"/><use transform="matrix(0.05,0,0,0.05,65,0)" xlink:href="#aY"/><use transform="matrix(0.05,0,0,0.05,70.95,0)" xlink:href="#bn"/><use transform="matrix(0.05,0,0,0.05,81.9,0)" xlink:href="#bj"/><use transform="matrix(0.05,0,0,0.05,85.85000000000001,0)" xlink:href="#bB"/><use transform="matrix(0.05,0,0,0.05,100.80000000000001,0)" xlink:href="#bq"/><use transform="matrix(0.05,0,0,0.05,106.75,0)" xlink:href="#br"/><use transform="matrix(0.05,0,0,0.05,112.7,0)" xlink:href="#bc"/><use transform="matrix(0.05,0,0,0.05,117.7,0)" xlink:href="#bh"/><use transform="matrix(0.05,0,0,0.05,129.70000000000002,0)" xlink:href="#bi"/><use transform="matrix(0.05,0,0,0.05,134.70000000000002,0)" xlink:href="#aY"/><use transform="matrix(0.05,0,0,0.05,140.65,0)" xlink:href="#bj"/><use transform="matrix(0.05,0,0,0.05,144.6,0)" xlink:href="#bk"/><use transform="matrix(0.05,0,0,0.05,154.6,0)" xlink:href="#bl"/></g><g id="H"><use transform="matrix(0.05,0,0,0.05,0,0)" xlink:href="#bs"/><use transform="matrix(0.05,0,0,0.05,9,0)" xlink:href="#aZ"/><use transform="matrix(0.05,0,0,0.05,19,0)" xlink:href="#bi"/><use transform="matrix(0.05,0,0,0.05,24,0)" xlink:href="#bD"/><use transform="matrix(0.05,0,0,0.05,34,0)" xlink:href="#be"/><use transform="matrix(0.05,0,0,0.05,44,0)" xlink:href="#bl"/><use transform="matrix(0.05,0,0,0.05,54,0)" xlink:href="#bm"/><use transform="matrix(0.05,0,0,0.05,64,0)" xlink:href="#aY"/><use transform="matrix(0.05,0,0,0.05,69.95,0)" xlink:href="#bn"/><use transform="matrix(0.05,0,0,0.05,80.9,0)" xlink:href="#bj"/><use transform="matrix(0.05,0,0,0.05,84.85000000000001,0)" xlink:href="#bB"/><use transform="matrix(0.05,0,0,0.05,99.80000000000001,0)" xlink:href="#bq"/><use transform="matrix(0.05,0,0,0.05,105.75,0)" xlink:href="#bg"/><use transform="matrix(0.05,0,0,0.05,109.7,0)" xlink:href="#be"/><use transform="matrix(0.05,0,0,0.05,119.7,0)" xlink:href="#bl"/><use transform="matrix(0.05,0,0,0.05,129.70000000000002,0)" xlink:href="#bm"/><use transform="matrix(0.05,0,0,0.05,139.70000000000002,0)" xlink:href="#aY"/><use transform="matrix(0.05,0,0,0.05,145.65,0)" xlink:href="#bn"/><use transform="matrix(0.05,0,0,0.05,156.6,0)" xlink:href="#bj"/><use transform="matrix(0.05,0,0,0.05,160.54999999999998,0)" xlink:href="#bB"/><use transform="matrix(0.05,0,0,0.05,175.49999999999997,0)" xlink:href="#bc"/><use transform="matrix(0.05,0,0,0.05,180.49999999999997,0)" xlink:href="#bh"/><use transform="matrix(0.05,0,0,0.05,192.49999999999997,0)" xlink:href="#bi"/><use transform="matrix(0.05,0,0,0.05,197.49999999999997,0)" xlink:href="#aY"/><use transform="matrix(0.05,0,0,0.05,203.44999999999996,0)" xlink:href="#bj"/><use transform="matrix(0.05,0,0,0.05,207.39999999999998,0)" xlink:href="#bk"/><use transform="matrix(0.05,0,0,0.05,217.39999999999998,0)" xlink:href="#bl"/><use transform="matrix(0.05,0,0,0.05,227.39999999999998,0)" xlink:href="#br"/></g><path fill="#333" d="M67-125c0 53 21 87 73 88 37 1 54-22 65-47l45 17C233-25 199 4 140 4 58 4 20-42 15-125 8-235 124-281 211-232c18 10 29 29 36 50l-46 12c-8-25-30-41-62-41-52 0-71 34-72 86" id="bE"/><path fill="#333" d="M135-194c87-1 58 113 63 194h-50c-7-57 23-157-34-157-59 0-34 97-39 157H25l-1-190h47c2 12-1 28 3 38 12-26 28-41 61-42" id="bF"/><g id="I"><use transform="matrix(0.05,0,0,0.05,0,0)" xlink:href="#bE"/><use transform="matrix(0.05,0,0,0.05,12.950000000000001,0)" xlink:href="#aS"/><use transform="matrix(0.05,0,0,0.05,17.950000000000003,0)" xlink:href="#aQ"/><use transform="matrix(0.05,0,0,0.05,22.950000000000003,0)" xlink:href="#aT"/><use transform="matrix(0.05,0,0,0.05,32.95,0)" xlink:href="#bF"/><use transform="matrix(0.05,0,0,0.05,43.900000000000006,0)" xlink:href="#aU"/><use transform="matrix(0.05,0,0,0.05,49.85000000000001,0)" xlink:href="#aT"/></g><g id="J"><use transform="matrix(0.05,0,0,0.05,0,0)" xlink:href="#bk"/><use transform="matrix(0.05,0,0,0.05,10,0)" xlink:href="#bb"/><use transform="matrix(0.05,0,0,0.05,20,0)" xlink:href="#bB"/><use transform="matrix(0.05,0,0,0.05,34.95,0)" xlink:href="#aZ"/><use transform="matrix(0.05,0,0,0.05,44.95,0)" xlink:href="#bc"/><use transform="matrix(0.05,0,0,0.05,49.95,0)" xlink:href="#bh"/><use transform="matrix(0.05,0,0,0.05,61.95,0)" xlink:href="#bi"/><use transform="matrix(0.05,0,0,0.05,66.95,0)" xlink:href="#aY"/><use transform="matrix(0.05,0,0,0.05,72.9,0)" xlink:href="#bj"/><use transform="matrix(0.05,0,0,0.05,76.85000000000001,0)" xlink:href="#bk"/><use transform="matrix(0.05,0,0,0.05,86.85000000000001,0)" xlink:href="#bl"/></g><path fill="#333" d="M101-234c-31-9-42 10-38 44h38v23H63V0H32v-167H5v-23h27c-7-52 17-82 69-68v24" id="bG"/><g id="K"><use transform="matrix(0.05,0,0,0.05,0,0)" xlink:href="#ba"/><use transform="matrix(0.05,0,0,0.05,9,0)" xlink:href="#aX"/><use transform="matrix(0.05,0,0,0.05,19,0)" xlink:href="#bG"/><use transform="matrix(0.05,0,0,0.05,24,0)" xlink:href="#bc"/><use transform="matrix(0.05,0,0,0.05,29,0)" xlink:href="#bh"/><use transform="matrix(0.05,0,0,0.05,41,0)" xlink:href="#bi"/><use transform="matrix(0.05,0,0,0.05,46,0)" xlink:href="#aY"/><use transform="matrix(0.05,0,0,0.05,51.95,0)" xlink:href="#bj"/><use transform="matrix(0.05,0,0,0.05,55.900000000000006,0)" xlink:href="#bk"/><use transform="matrix(0.05,0,0,0.05,65.9,0)" xlink:href="#bl"/></g><g id="L"><use transform="matrix(0.05,0,0,0.05,0,0)" xlink:href="#ba"/><use transform="matrix(0.05,0,0,0.05,9,0)" xlink:href="#aZ"/><use transform="matrix(0.05,0,0,0.05,19,0)" xlink:href="#bg"/><use transform="matrix(0.05,0,0,0.05,22.95,0)" xlink:href="#be"/><use transform="matrix(0.05,0,0,0.05,32.95,0)" xlink:href="#bg"/><use transform="matrix(0.05,0,0,0.05,36.900000000000006,0)" xlink:href="#bm"/><use transform="matrix(0.05,0,0,0.05,46.900000000000006,0)" xlink:href="#aY"/><use transform="matrix(0.05,0,0,0.05,52.85,0)" xlink:href="#bc"/><use transform="matrix(0.05,0,0,0.05,57.85,0)" xlink:href="#bh"/><use transform="matrix(0.05,0,0,0.05,69.85000000000001,0)" xlink:href="#bi"/><use transform="matrix(0.05,0,0,0.05,74.85000000000001,0)" xlink:href="#aY"/><use transform="matrix(0.05,0,0,0.05,80.80000000000001,0)" xlink:href="#bj"/><use transform="matrix(0.05,0,0,0.05,84.75000000000001,0)" xlink:href="#bk"/><use transform="matrix(0.05,0,0,0.05,94.75000000000001,0)" xlink:href="#bl"/></g><path fill="#333" d="M190 0L58-211 59 0H30v-248h39L202-35l-2-213h31V0h-41" id="bH"/><g id="M"><use transform="matrix(0.05,0,0,0.05,0,0)" xlink:href="#bl"/><use transform="matrix(0.05,0,0,0.05,10,0)" xlink:href="#aZ"/><use transform="matrix(0.05,0,0,0.05,20,0)" xlink:href="#bi"/><use transform="matrix(0.05,0,0,0.05,25,0)" xlink:href="#bH"/><use transform="matrix(0.05,0,0,0.05,37.95,0)" xlink:href="#bb"/><use transform="matrix(0.05,0,0,0.05,47.95,0)" xlink:href="#bB"/><use transform="matrix(0.05,0,0,0.05,62.900000000000006,0)" xlink:href="#aZ"/><use transform="matrix(0.05,0,0,0.05,72.9,0)" xlink:href="#bq"/><use transform="matrix(0.05,0,0,0.05,78.85000000000001,0)" xlink:href="#br"/><use transform="matrix(0.05,0,0,0.05,84.80000000000001,0)" xlink:href="#bc"/><use transform="matrix(0.05,0,0,0.05,89.80000000000001,0)" xlink:href="#bh"/><use transform="matrix(0.05,0,0,0.05,101.80000000000001,0)" xlink:href="#bi"/><use transform="matrix(0.05,0,0,0.05,106.80000000000001,0)" xlink:href="#aY"/><use transform="matrix(0.05,0,0,0.05,112.75,0)" xlink:href="#bj"/><use transform="matrix(0.05,0,0,0.05,116.7,0)" xlink:href="#bk"/><use transform="matrix(0.05,0,0,0.05,126.7,0)" xlink:href="#bl"/></g><g id="N"><use transform="matrix(0.05,0,0,0.05,0,0)" xlink:href="#bs"/><use transform="matrix(0.05,0,0,0.05,9,0)" xlink:href="#aZ"/><use transform="matrix(0.05,0,0,0.05,19,0)" xlink:href="#bi"/><use transform="matrix(0.05,0,0,0.05,24,0)" xlink:href="#bH"/><use transform="matrix(0.05,0,0,0.05,36.95,0)" xlink:href="#bb"/><use transform="matrix(0.05,0,0,0.05,46.95,0)" xlink:href="#bB"/><use transform="matrix(0.05,0,0,0.05,61.900000000000006,0)" xlink:href="#aZ"/><use transform="matrix(0.05,0,0,0.05,71.9,0)" xlink:href="#bq"/><use transform="matrix(0.05,0,0,0.05,77.85000000000001,0)" xlink:href="#bH"/><use transform="matrix(0.05,0,0,0.05,90.80000000000001,0)" xlink:href="#bb"/><use transform="matrix(0.05,0,0,0.05,100.80000000000001,0)" xlink:href="#bB"/><use transform="matrix(0.05,0,0,0.05,115.75,0)" xlink:href="#aZ"/><use transform="matrix(0.05,0,0,0.05,125.75,0)" xlink:href="#bc"/><use transform="matrix(0.05,0,0,0.05,130.75,0)" xlink:href="#bh"/><use transform="matrix(0.05,0,0,0.05,142.75,0)" xlink:href="#bi"/><use transform="matrix(0.05,0,0,0.05,147.75,0)" xlink:href="#aY"/><use transform="matrix(0.05,0,0,0.05,153.7,0)" xlink:href="#bj"/><use transform="matrix(0.05,0,0,0.05,157.64999999999998,0)" xlink:href="#bk"/><use transform="matrix(0.05,0,0,0.05,167.64999999999998,0)" xlink:href="#bl"/><use transform="matrix(0.05,0,0,0.05,177.64999999999998,0)" xlink:href="#br"/></g><g id="O"><use transform="matrix(0.05,0,0,0.05,0,0)" xlink:href="#bl"/><use transform="matrix(0.05,0,0,0.05,10,0)" xlink:href="#aZ"/><use transform="matrix(0.05,0,0,0.05,20,0)" xlink:href="#bi"/><use transform="matrix(0.05,0,0,0.05,25,0)" xlink:href="#bt"/><use transform="matrix(0.05,0,0,0.05,37.95,0)" xlink:href="#aX"/><use transform="matrix(0.05,0,0,0.05,47.95,0)" xlink:href="#bG"/><use transform="matrix(0.05,0,0,0.05,52.95,0)" xlink:href="#bq"/><use transform="matrix(0.05,0,0,0.05,58.900000000000006,0)" xlink:href="#br"/><use transform="matrix(0.05,0,0,0.05,64.85000000000001,0)" xlink:href="#bc"/><use transform="matrix(0.05,0,0,0.05,69.85000000000001,0)" xlink:href="#bh"/><use transform="matrix(0.05,0,0,0.05,81.85000000000001,0)" xlink:href="#bi"/><use transform="matrix(0.05,0,0,0.05,86.85000000000001,0)" xlink:href="#aY"/><use transform="matrix(0.05,0,0,0.05,92.80000000000001,0)" xlink:href="#bj"/><use transform="matrix(0.05,0,0,0.05,96.75000000000001,0)" xlink:href="#bk"/><use transform="matrix(0.05,0,0,0.05,106.75,0)" xlink:href="#bl"/></g><g id="P"><use transform="matrix(0.05,0,0,0.05,0,0)" xlink:href="#bs"/><use transform="matrix(0.05,0,0,0.05,9,0)" xlink:href="#aZ"/><use transform="matrix(0.05,0,0,0.05,19,0)" xlink:href="#bi"/><use transform="matrix(0.05,0,0,0.05,24,0)" xlink:href="#bt"/><use transform="matrix(0.05,0,0,0.05,36.95,0)" xlink:href="#aX"/><use transform="matrix(0.05,0,0,0.05,46.95,0)" xlink:href="#bG"/><use transform="matrix(0.05,0,0,0.05,51.95,0)" xlink:href="#bq"/><use transform="matrix(0.05,0,0,0.05,57.900000000000006,0)" xlink:href="#bt"/><use transform="matrix(0.05,0,0,0.05,70.85000000000001,0)" xlink:href="#aX"/><use transform="matrix(0.05,0,0,0.05,80.85000000000001,0)" xlink:href="#bG"/><use transform="matrix(0.05,0,0,0.05,85.85000000000001,0)" xlink:href="#bc"/><use transform="matrix(0.05,0,0,0.05,90.85000000000001,0)" xlink:href="#bh"/><use transform="matrix(0.05,0,0,0.05,102.85000000000001,0)" xlink:href="#bi"/><use transform="matrix(0.05,0,0,0.05,107.85000000000001,0)" xlink:href="#aY"/><use transform="matrix(0.05,0,0,0.05,113.80000000000001,0)" xlink:href="#bj"/><use transform="matrix(0.05,0,0,0.05,117.75,0)" xlink:href="#bk"/><use transform="matrix(0.05,0,0,0.05,127.75,0)" xlink:href="#bl"/><use transform="matrix(0.05,0,0,0.05,137.75,0)" xlink:href="#br"/></g><g id="Q"><use transform="matrix(0.05,0,0,0.05,0,0)" xlink:href="#bl"/><use transform="matrix(0.05,0,0,0.05,10,0)" xlink:href="#aZ"/><use transform="matrix(0.05,0,0,0.05,20,0)" xlink:href="#bi"/><use transform="matrix(0.05,0,0,0.05,25,0)" xlink:href="#bt"/><use transform="matrix(0.05,0,0,0.05,37.95,0)" xlink:href="#aZ"/><use transform="matrix(0.05,0,0,0.05,47.95,0)" xlink:href="#bg"/><use transform="matrix(0.05,0,0,0.05,51.900000000000006,0)" xlink:href="#be"/><use transform="matrix(0.05,0,0,0.05,61.900000000000006,0)" xlink:href="#bg"/><use transform="matrix(0.05,0,0,0.05,65.85000000000001,0)" xlink:href="#bm"/><use transform="matrix(0.05,0,0,0.05,75.85000000000001,0)" xlink:href="#aY"/><use transform="matrix(0.05,0,0,0.05,81.80000000000001,0)" xlink:href="#bq"/><use transform="matrix(0.05,0,0,0.05,87.75000000000001,0)" xlink:href="#br"/><use transform="matrix(0.05,0,0,0.05,93.70000000000002,0)" xlink:href="#bc"/><use transform="matrix(0.05,0,0,0.05,98.70000000000002,0)" xlink:href="#bh"/><use transform="matrix(0.05,0,0,0.05,110.7,0)" xlink:href="#bi"/><use transform="matrix(0.05,0,0,0.05,115.7,0)" xlink:href="#aY"/><use transform="matrix(0.05,0,0,0.05,121.65000000000003,0)" xlink:href="#bj"/><use transform="matrix(0.05,0,0,0.05,125.60000000000002,0)" xlink:href="#bk"/><use transform="matrix(0.05,0,0,0.05,135.60000000000002,0)" xlink:href="#bl"/></g><g id="R"><use transform="matrix(0.05,0,0,0.05,0,0)" xlink:href="#bs"/><use transform="matrix(0.05,0,0,0.05,9,0)" xlink:href="#aZ"/><use transform="matrix(0.05,0,0,0.05,19,0)" xlink:href="#bi"/><use transform="matrix(0.05,0,0,0.05,24,0)" xlink:href="#bt"/><use transform="matrix(0.05,0,0,0.05,36.95,0)" xlink:href="#aZ"/><use transform="matrix(0.05,0,0,0.05,46.95,0)" xlink:href="#bg"/><use transform="matrix(0.05,0,0,0.05,50.900000000000006,0)" xlink:href="#be"/><use transform="matrix(0.05,0,0,0.05,60.900000000000006,0)" xlink:href="#bg"/><use transform="matrix(0.05,0,0,0.05,64.85000000000001,0)" xlink:href="#bm"/><use transform="matrix(0.05,0,0,0.05,74.85000000000001,0)" xlink:href="#aY"/><use transform="matrix(0.05,0,0,0.05,80.80000000000001,0)" xlink:href="#bq"/><use transform="matrix(0.05,0,0,0.05,86.75000000000001,0)" xlink:href="#bt"/><use transform="matrix(0.05,0,0,0.05,99.70000000000002,0)" xlink:href="#aZ"/><use transform="matrix(0.05,0,0,0.05,109.7,0)" xlink:href="#bg"/><use transform="matrix(0.05,0,0,0.05,113.65000000000003,0)" xlink:href="#be"/><use transform="matrix(0.05,0,0,0.05,123.65000000000003,0)" xlink:href="#bg"/><use transform="matrix(0.05,0,0,0.05,127.60000000000002,0)" xlink:href="#bm"/><use transform="matrix(0.05,0,0,0.05,137.60000000000002,0)" xlink:href="#aY"/><use transform="matrix(0.05,0,0,0.05,143.55,0)" xlink:href="#bc"/><use transform="matrix(0.05,0,0,0.05,148.55,0)" xlink:href="#bh"/><use transform="matrix(0.05,0,0,0.05,160.55,0)" xlink:href="#bi"/><use transform="matrix(0.05,0,0,0.05,165.55,0)" xlink:href="#aY"/><use transform="matrix(0.05,0,0,0.05,171.5,0)" xlink:href="#bj"/><use transform="matrix(0.05,0,0,0.05,175.45,0)" xlink:href="#bk"/><use transform="matrix(0.05,0,0,0.05,185.45,0)" xlink:href="#bl"/><use transform="matrix(0.05,0,0,0.05,195.45,0)" xlink:href="#br"/></g><g id="S"><use transform="matrix(0.06172839506172839,0,0,0.06172839506172839,0,0)" xlink:href="#bp"/><use transform="matrix(0.06172839506172839,0,0,0.06172839506172839,14.814814814814813,0)" xlink:href="#bb"/><use transform="matrix(0.06172839506172839,0,0,0.06172839506172839,27.160493827160494,0)" xlink:href="#bs"/><use transform="matrix(0.06172839506172839,0,0,0.06172839506172839,38.27160493827161,0)" xlink:href="#bs"/><use transform="matrix(0.06172839506172839,0,0,0.06172839506172839,49.38271604938272,0)" xlink:href="#aZ"/></g><path fill="#333" d="M27 0v-27h64v-190l-56 39v-29l58-41h29v221h61V0H27" id="bI"/><use transform="matrix(0.03703703703703702,0,0,0.03703703703703702,0,0)" xlink:href="#bI" id="T"/><path fill="#333" d="M33 0v-38h34V0H33" id="bJ"/><path fill="#333" d="M80-196l47-18 7 23-49 13 32 44-20 13-27-46-27 45-21-12 33-44-49-13 8-23 47 19-2-53h23" id="bK"/><g id="U"><use transform="matrix(0.03703703703703702,0,0,0.03703703703703702,0,0)" xlink:href="#bI"/><use transform="matrix(0.03703703703703702,0,0,0.03703703703703702,7.407407407407404,0)" xlink:href="#bJ"/><use transform="matrix(0.03703703703703702,0,0,0.03703703703703702,11.111111111111107,0)" xlink:href="#bJ"/><use transform="matrix(0.03703703703703702,0,0,0.03703703703703702,14.814814814814808,0)" xlink:href="#bK"/></g><path fill="#333" d="M76-208v77h127v40H76V0H24v-248h183v40H76" id="bL"/><path fill="#333" d="M220-157c-53 9-28 100-34 157h-49v-107c1-27-5-49-29-50C55-147 81-57 75 0H25l-1-190h47c2 12-1 28 3 38 10-53 101-56 108 0 13-22 24-43 59-42 82 1 51 116 57 194h-49v-107c-1-25-5-48-29-50" id="bM"/><path fill="#333" d="M25 0v-190h50V0H25zm-5-208v-5l45-51h45v8l-60 48H20" id="bN"/><g id="V"><use transform="matrix(0.05,0,0,0.05,0,0)" xlink:href="#bL"/><use transform="matrix(0.05,0,0,0.05,10.950000000000001,0)" xlink:href="#aV"/><use transform="matrix(0.05,0,0,0.05,20.950000000000003,0)" xlink:href="#bM"/><use transform="matrix(0.05,0,0,0.05,36.95,0)" xlink:href="#bN"/><use transform="matrix(0.05,0,0,0.05,41.95,0)" xlink:href="#aS"/><use transform="matrix(0.05,0,0,0.05,46.95,0)" xlink:href="#aQ"/><use transform="matrix(0.05,0,0,0.05,51.95,0)" xlink:href="#aV"/></g><path fill="#333" d="M145-31C134-9 116 4 85 4 32 4 16-35 15-94c0-59 17-99 70-100 32-1 48 14 60 33 0-11-1-24 2-32h30l-1 268h-32zM93-21c41 0 51-33 51-76s-8-73-50-73c-40 0-46 35-46 75s5 74 45 74" id="bO"/><path fill="#333" d="M240 0l2-218c-23 76-54 145-80 218h-23L58-218 59 0H30v-248h44l77 211c21-75 51-140 76-211h43V0h-30" id="bP"/><g id="W"><use transform="matrix(0.05,0,0,0.05,0,0)" xlink:href="#bO"/><use transform="matrix(0.05,0,0,0.05,10,0)" xlink:href="#bi"/><use transform="matrix(0.05,0,0,0.05,15,0)" xlink:href="#bd"/><use transform="matrix(0.05,0,0,0.05,25,0)" xlink:href="#bP"/><use transform="matrix(0.05,0,0,0.05,39.95,0)" xlink:href="#aZ"/><use transform="matrix(0.05,0,0,0.05,49.95,0)" xlink:href="#bB"/><use transform="matrix(0.05,0,0,0.05,64.9,0)" xlink:href="#bf"/><use transform="matrix(0.05,0,0,0.05,74.9,0)" xlink:href="#aY"/><use transform="matrix(0.05,0,0,0.05,80.85000000000001,0)" xlink:href="#bb"/><use transform="matrix(0.05,0,0,0.05,90.85000000000001,0)" xlink:href="#bs"/><use transform="matrix(0.05,0,0,0.05,99.85000000000001,0)" xlink:href="#bc"/><use transform="matrix(0.05,0,0,0.05,104.85000000000001,0)" xlink:href="#bj"/><use transform="matrix(0.05,0,0,0.05,108.80000000000001,0)" xlink:href="#bk"/><use transform="matrix(0.05,0,0,0.05,118.80000000000001,0)" xlink:href="#bi"/></g><path fill="#333" d="M140-251c81 0 123 46 123 126C263-53 228-8 163 1c7 30 30 48 69 40v23c-55 16-95-15-103-61C56-3 17-48 17-125c0-80 42-126 123-126zm0 227c63 0 89-41 89-101s-29-99-89-99c-61 0-89 39-89 99S79-25 140-24" id="bQ"/><g id="X"><use transform="matrix(0.05,0,0,0.05,0,0)" xlink:href="#bl"/><use transform="matrix(0.05,0,0,0.05,10,0)" xlink:href="#aZ"/><use transform="matrix(0.05,0,0,0.05,20,0)" xlink:href="#bi"/><use transform="matrix(0.05,0,0,0.05,25,0)" xlink:href="#bQ"/><use transform="matrix(0.05,0,0,0.05,39,0)" xlink:href="#bi"/><use transform="matrix(0.05,0,0,0.05,44,0)" xlink:href="#bd"/><use transform="matrix(0.05,0,0,0.05,54,0)" xlink:href="#bP"/><use transform="matrix(0.05,0,0,0.05,68.95,0)" xlink:href="#aZ"/><use transform="matrix(0.05,0,0,0.05,78.95,0)" xlink:href="#bB"/><use transform="matrix(0.05,0,0,0.05,93.9,0)" xlink:href="#bf"/><use transform="matrix(0.05,0,0,0.05,103.9,0)" xlink:href="#aY"/><use transform="matrix(0.05,0,0,0.05,109.85000000000001,0)" xlink:href="#bb"/><use transform="matrix(0.05,0,0,0.05,119.85000000000001,0)" xlink:href="#bs"/><use transform="matrix(0.05,0,0,0.05,128.85000000000002,0)" xlink:href="#bq"/><use transform="matrix(0.05,0,0,0.05,134.8,0)" xlink:href="#br"/><use transform="matrix(0.05,0,0,0.05,140.75,0)" xlink:href="#bc"/><use transform="matrix(0.05,0,0,0.05,145.75,0)" xlink:href="#bj"/><use transform="matrix(0.05,0,0,0.05,149.7,0)" xlink:href="#bk"/><use transform="matrix(0.05,0,0,0.05,159.7,0)" xlink:href="#bi"/></g><g id="Y"><use transform="matrix(0.05,0,0,0.05,0,0)" xlink:href="#bm"/><use transform="matrix(0.05,0,0,0.05,10,0)" xlink:href="#bd"/><use transform="matrix(0.05,0,0,0.05,20,0)" xlink:href="#bj"/><use transform="matrix(0.05,0,0,0.05,23.95,0)" xlink:href="#ba"/><use transform="matrix(0.05,0,0,0.05,32.95,0)" xlink:href="#bj"/><use transform="matrix(0.05,0,0,0.05,36.900000000000006,0)" xlink:href="#bb"/><use transform="matrix(0.05,0,0,0.05,46.900000000000006,0)" xlink:href="#bk"/><use transform="matrix(0.05,0,0,0.05,56.900000000000006,0)" xlink:href="#bm"/><use transform="matrix(0.05,0,0,0.05,66.9,0)" xlink:href="#aY"/><use transform="matrix(0.05,0,0,0.05,72.85000000000001,0)" xlink:href="#bP"/><use transform="matrix(0.05,0,0,0.05,87.80000000000001,0)" xlink:href="#aZ"/><use transform="matrix(0.05,0,0,0.05,97.80000000000001,0)" xlink:href="#bB"/><use transform="matrix(0.05,0,0,0.05,112.75,0)" xlink:href="#bf"/><use transform="matrix(0.05,0,0,0.05,122.75,0)" xlink:href="#aY"/><use transform="matrix(0.05,0,0,0.05,128.70000000000002,0)" xlink:href="#bb"/><use transform="matrix(0.05,0,0,0.05,138.70000000000002,0)" xlink:href="#bq"/><use transform="matrix(0.05,0,0,0.05,144.65,0)" xlink:href="#bB"/><use transform="matrix(0.05,0,0,0.05,159.6,0)" xlink:href="#aZ"/><use transform="matrix(0.05,0,0,0.05,169.6,0)" xlink:href="#bB"/><use transform="matrix(0.05,0,0,0.05,184.54999999999998,0)" xlink:href="#bf"/><use transform="matrix(0.05,0,0,0.05,194.54999999999998,0)" xlink:href="#aY"/><use transform="matrix(0.05,0,0,0.05,200.49999999999997,0)" xlink:href="#bb"/><use transform="matrix(0.05,0,0,0.05,210.49999999999997,0)" xlink:href="#bc"/><use transform="matrix(0.05,0,0,0.05,215.49999999999997,0)" xlink:href="#bt"/><use transform="matrix(0.05,0,0,0.05,228.44999999999996,0)" xlink:href="#bg"/><use transform="matrix(0.05,0,0,0.05,232.39999999999998,0)" xlink:href="#bj"/><use transform="matrix(0.05,0,0,0.05,236.3499999999999,0)" xlink:href="#aZ"/><use transform="matrix(0.05,0,0,0.05,246.3499999999999,0)" xlink:href="#bk"/><use transform="matrix(0.05,0,0,0.05,256.3499999999999,0)" xlink:href="#bi"/><use transform="matrix(0.05,0,0,0.05,261.3499999999999,0)" xlink:href="#aZ"/><use transform="matrix(0.05,0,0,0.05,271.3499999999999,0)" xlink:href="#br"/></g><path fill="#333" d="M108 0H70L1-190h34L89-25l56-165h34" id="bR"/><g id="Z"><use transform="matrix(0.05,0,0,0.05,0,0)" xlink:href="#aY"/><use transform="matrix(0.05,0,0,0.05,5.95,0)" xlink:href="#aZ"/><use transform="matrix(0.05,0,0,0.05,15.949999999999998,0)" xlink:href="#bB"/><use transform="matrix(0.05,0,0,0.05,30.899999999999995,0)" xlink:href="#bb"/><use transform="matrix(0.05,0,0,0.05,40.9,0)" xlink:href="#bR"/><use transform="matrix(0.05,0,0,0.05,49.9,0)" xlink:href="#aZ"/><use transform="matrix(0.05,0,0,0.05,59.900000000000006,0)" xlink:href="#aY"/><use transform="matrix(0.05,0,0,0.05,65.85,0)" xlink:href="#bP"/><use transform="matrix(0.05,0,0,0.05,80.8,0)" xlink:href="#aZ"/><use transform="matrix(0.05,0,0,0.05,90.8,0)" xlink:href="#bB"/><use transform="matrix(0.05,0,0,0.05,105.75,0)" xlink:href="#bf"/><use transform="matrix(0.05,0,0,0.05,115.75,0)" xlink:href="#aY"/><use transform="matrix(0.05,0,0,0.05,121.7,0)" xlink:href="#bb"/><use transform="matrix(0.05,0,0,0.05,131.7,0)" xlink:href="#bq"/><use transform="matrix(0.05,0,0,0.05,137.64999999999998,0)" xlink:href="#bB"/><use transform="matrix(0.05,0,0,0.05,152.59999999999997,0)" xlink:href="#aZ"/><use transform="matrix(0.05,0,0,0.05,162.59999999999997,0)" xlink:href="#bB"/><use transform="matrix(0.05,0,0,0.05,177.54999999999995,0)" xlink:href="#bf"/><use transform="matrix(0.05,0,0,0.05,187.54999999999995,0)" xlink:href="#aY"/><use transform="matrix(0.05,0,0,0.05,193.49999999999994,0)" xlink:href="#bb"/><use transform="matrix(0.05,0,0,0.05,203.49999999999994,0)" xlink:href="#bc"/><use transform="matrix(0.05,0,0,0.05,208.49999999999991,0)" xlink:href="#bt"/><use transform="matrix(0.05,0,0,0.05,221.44999999999993,0)" xlink:href="#bg"/><use transform="matrix(0.05,0,0,0.05,225.39999999999992,0)" xlink:href="#bj"/><use transform="matrix(0.05,0,0,0.05,229.3499999999999,0)" xlink:href="#aZ"/><use transform="matrix(0.05,0,0,0.05,239.3499999999999,0)" xlink:href="#bk"/><use transform="matrix(0.05,0,0,0.05,249.3499999999999,0)" xlink:href="#bi"/><use transform="matrix(0.05,0,0,0.05,254.3499999999999,0)" xlink:href="#aZ"/><use transform="matrix(0.05,0,0,0.05,264.3499999999999,0)" xlink:href="#br"/></g><g id="aa"><use transform="matrix(0.06172839506172839,0,0,0.06172839506172839,0,0)" xlink:href="#bt"/><use transform="matrix(0.06172839506172839,0,0,0.06172839506172839,15.987654320987653,0)" xlink:href="#bb"/><use transform="matrix(0.06172839506172839,0,0,0.06172839506172839,28.333333333333332,0)" xlink:href="#bk"/><use transform="matrix(0.06172839506172839,0,0,0.06172839506172839,40.67901234567901,0)" xlink:href="#bs"/><use transform="matrix(0.06172839506172839,0,0,0.06172839506172839,51.79012345679013,0)" xlink:href="#bi"/><use transform="matrix(0.06172839506172839,0,0,0.06172839506172839,57.96296296296297,0)" xlink:href="#bj"/><use transform="matrix(0.06172839506172839,0,0,0.06172839506172839,62.83950617283951,0)" xlink:href="#bi"/><use transform="matrix(0.06172839506172839,0,0,0.06172839506172839,69.01234567901236,0)" xlink:href="#be"/><use transform="matrix(0.06172839506172839,0,0,0.06172839506172839,81.35802469135804,0)" xlink:href="#bj"/></g><g id="ab"><use transform="matrix(0.06172839506172839,0,0,0.06172839506172839,0,0)" xlink:href="#bp"/><use transform="matrix(0.06172839506172839,0,0,0.06172839506172839,14.814814814814813,0)" xlink:href="#bm"/><use transform="matrix(0.06172839506172839,0,0,0.06172839506172839,27.160493827160494,0)" xlink:href="#aY"/><use transform="matrix(0.06172839506172839,0,0,0.06172839506172839,34.50617283950617,0)" xlink:href="#bi"/><use transform="matrix(0.06172839506172839,0,0,0.06172839506172839,40.67901234567901,0)" xlink:href="#bj"/><use transform="matrix(0.06172839506172839,0,0,0.06172839506172839,45.55555555555556,0)" xlink:href="#ba"/><use transform="matrix(0.06172839506172839,0,0,0.06172839506172839,56.66666666666667,0)" xlink:href="#bj"/><use transform="matrix(0.06172839506172839,0,0,0.06172839506172839,61.543209876543216,0)" xlink:href="#aX"/><use transform="matrix(0.06172839506172839,0,0,0.06172839506172839,73.8888888888889,0)" xlink:href="#bm"/></g><use transform="matrix(0.03703703703703702,0,0,0.03703703703703702,0,0)" xlink:href="#bK" id="ac"/></defs></g></svg>